<?xml version="1.0" encoding="utf-8" standalone="no"?>
<!DOCTYPE svg PUBLIC "-//W3C//DTD SVG 1.1//EN"
  "http://www.w3.org/Graphics/SVG/1.1/DTD/svg11.dtd">
<svg xmlns:xlink="http://www.w3.org/1999/xlink" width="838.076136pt" height="546.345pt" viewBox="0 0 838.076136 546.345" xmlns="http://www.w3.org/2000/svg" version="1.1">
 <metadata>
  <rdf:RDF xmlns:dc="http://purl.org/dc/elements/1.1/" xmlns:cc="http://creativecommons.org/ns#" xmlns:rdf="http://www.w3.org/1999/02/22-rdf-syntax-ns#">
   <cc:Work>
    <dc:type rdf:resource="http://purl.org/dc/dcmitype/StillImage"/>
    <dc:date>2023-12-17T22:38:30.513291</dc:date>
    <dc:format>image/svg+xml</dc:format>
    <dc:creator>
     <cc:Agent>
      <dc:title>Matplotlib v3.7.4, https://matplotlib.org/</dc:title>
     </cc:Agent>
    </dc:creator>
   </cc:Work>
  </rdf:RDF>
 </metadata>
 <defs>
  <style type="text/css">*{stroke-linejoin: round; stroke-linecap: butt}</style>
 </defs>
 <g id="figure_1">
  <g id="patch_1">
   <path d="M 0 546.345 
L 838.076136 546.345 
L 838.076136 0 
L 0 0 
z
" style="fill: #ffffff"/>
  </g>
  <g id="axes_1">
   <g id="patch_2">
    <path d="M 159.9 479.754375 
L 829.5 479.754375 
L 829.5 36.234375 
L 159.9 36.234375 
z
" style="fill: #ffffff"/>
   </g>
   <g id="matplotlib.axis_1">
    <g id="xtick_1">
     <g id="line2d_1">
      <defs>
       <path id="mc6562e197e" d="M 0 0 
L 0 3.5 
" style="stroke: #000000; stroke-width: 0.8"/>
      </defs>
      <g>
       <use xlink:href="#mc6562e197e" x="190.336364" y="479.754375" style="stroke: #000000; stroke-width: 0.8"/>
      </g>
     </g>
     <g id="text_1">
      <!-- 0 -->
      <g transform="translate(183.973864 501.95125) scale(0.2 -0.2)">
       <defs>
        <path id="DejaVuSans-30" d="M 2034 4250 
Q 1547 4250 1301 3770 
Q 1056 3291 1056 2328 
Q 1056 1369 1301 889 
Q 1547 409 2034 409 
Q 2525 409 2770 889 
Q 3016 1369 3016 2328 
Q 3016 3291 2770 3770 
Q 2525 4250 2034 4250 
z
M 2034 4750 
Q 2819 4750 3233 4129 
Q 3647 3509 3647 2328 
Q 3647 1150 3233 529 
Q 2819 -91 2034 -91 
Q 1250 -91 836 529 
Q 422 1150 422 2328 
Q 422 3509 836 4129 
Q 1250 4750 2034 4750 
z
" transform="scale(0.015625)"/>
       </defs>
       <use xlink:href="#DejaVuSans-30"/>
      </g>
     </g>
    </g>
    <g id="xtick_2">
     <g id="line2d_2">
      <g>
       <use xlink:href="#mc6562e197e" x="312.081818" y="479.754375" style="stroke: #000000; stroke-width: 0.8"/>
      </g>
     </g>
     <g id="text_2">
      <!-- 2000 -->
      <g transform="translate(286.631818 501.95125) scale(0.2 -0.2)">
       <defs>
        <path id="DejaVuSans-32" d="M 1228 531 
L 3431 531 
L 3431 0 
L 469 0 
L 469 531 
Q 828 903 1448 1529 
Q 2069 2156 2228 2338 
Q 2531 2678 2651 2914 
Q 2772 3150 2772 3378 
Q 2772 3750 2511 3984 
Q 2250 4219 1831 4219 
Q 1534 4219 1204 4116 
Q 875 4013 500 3803 
L 500 4441 
Q 881 4594 1212 4672 
Q 1544 4750 1819 4750 
Q 2544 4750 2975 4387 
Q 3406 4025 3406 3419 
Q 3406 3131 3298 2873 
Q 3191 2616 2906 2266 
Q 2828 2175 2409 1742 
Q 1991 1309 1228 531 
z
" transform="scale(0.015625)"/>
       </defs>
       <use xlink:href="#DejaVuSans-32"/>
       <use xlink:href="#DejaVuSans-30" x="63.623047"/>
       <use xlink:href="#DejaVuSans-30" x="127.246094"/>
       <use xlink:href="#DejaVuSans-30" x="190.869141"/>
      </g>
     </g>
    </g>
    <g id="xtick_3">
     <g id="line2d_3">
      <g>
       <use xlink:href="#mc6562e197e" x="433.827273" y="479.754375" style="stroke: #000000; stroke-width: 0.8"/>
      </g>
     </g>
     <g id="text_3">
      <!-- 4000 -->
      <g transform="translate(408.377273 501.95125) scale(0.2 -0.2)">
       <defs>
        <path id="DejaVuSans-34" d="M 2419 4116 
L 825 1625 
L 2419 1625 
L 2419 4116 
z
M 2253 4666 
L 3047 4666 
L 3047 1625 
L 3713 1625 
L 3713 1100 
L 3047 1100 
L 3047 0 
L 2419 0 
L 2419 1100 
L 313 1100 
L 313 1709 
L 2253 4666 
z
" transform="scale(0.015625)"/>
       </defs>
       <use xlink:href="#DejaVuSans-34"/>
       <use xlink:href="#DejaVuSans-30" x="63.623047"/>
       <use xlink:href="#DejaVuSans-30" x="127.246094"/>
       <use xlink:href="#DejaVuSans-30" x="190.869141"/>
      </g>
     </g>
    </g>
    <g id="xtick_4">
     <g id="line2d_4">
      <g>
       <use xlink:href="#mc6562e197e" x="555.572727" y="479.754375" style="stroke: #000000; stroke-width: 0.8"/>
      </g>
     </g>
     <g id="text_4">
      <!-- 6000 -->
      <g transform="translate(530.122727 501.95125) scale(0.2 -0.2)">
       <defs>
        <path id="DejaVuSans-36" d="M 2113 2584 
Q 1688 2584 1439 2293 
Q 1191 2003 1191 1497 
Q 1191 994 1439 701 
Q 1688 409 2113 409 
Q 2538 409 2786 701 
Q 3034 994 3034 1497 
Q 3034 2003 2786 2293 
Q 2538 2584 2113 2584 
z
M 3366 4563 
L 3366 3988 
Q 3128 4100 2886 4159 
Q 2644 4219 2406 4219 
Q 1781 4219 1451 3797 
Q 1122 3375 1075 2522 
Q 1259 2794 1537 2939 
Q 1816 3084 2150 3084 
Q 2853 3084 3261 2657 
Q 3669 2231 3669 1497 
Q 3669 778 3244 343 
Q 2819 -91 2113 -91 
Q 1303 -91 875 529 
Q 447 1150 447 2328 
Q 447 3434 972 4092 
Q 1497 4750 2381 4750 
Q 2619 4750 2861 4703 
Q 3103 4656 3366 4563 
z
" transform="scale(0.015625)"/>
       </defs>
       <use xlink:href="#DejaVuSans-36"/>
       <use xlink:href="#DejaVuSans-30" x="63.623047"/>
       <use xlink:href="#DejaVuSans-30" x="127.246094"/>
       <use xlink:href="#DejaVuSans-30" x="190.869141"/>
      </g>
     </g>
    </g>
    <g id="xtick_5">
     <g id="line2d_5">
      <g>
       <use xlink:href="#mc6562e197e" x="677.318182" y="479.754375" style="stroke: #000000; stroke-width: 0.8"/>
      </g>
     </g>
     <g id="text_5">
      <!-- 8000 -->
      <g transform="translate(651.868182 501.95125) scale(0.2 -0.2)">
       <defs>
        <path id="DejaVuSans-38" d="M 2034 2216 
Q 1584 2216 1326 1975 
Q 1069 1734 1069 1313 
Q 1069 891 1326 650 
Q 1584 409 2034 409 
Q 2484 409 2743 651 
Q 3003 894 3003 1313 
Q 3003 1734 2745 1975 
Q 2488 2216 2034 2216 
z
M 1403 2484 
Q 997 2584 770 2862 
Q 544 3141 544 3541 
Q 544 4100 942 4425 
Q 1341 4750 2034 4750 
Q 2731 4750 3128 4425 
Q 3525 4100 3525 3541 
Q 3525 3141 3298 2862 
Q 3072 2584 2669 2484 
Q 3125 2378 3379 2068 
Q 3634 1759 3634 1313 
Q 3634 634 3220 271 
Q 2806 -91 2034 -91 
Q 1263 -91 848 271 
Q 434 634 434 1313 
Q 434 1759 690 2068 
Q 947 2378 1403 2484 
z
M 1172 3481 
Q 1172 3119 1398 2916 
Q 1625 2713 2034 2713 
Q 2441 2713 2670 2916 
Q 2900 3119 2900 3481 
Q 2900 3844 2670 4047 
Q 2441 4250 2034 4250 
Q 1625 4250 1398 4047 
Q 1172 3844 1172 3481 
z
" transform="scale(0.015625)"/>
       </defs>
       <use xlink:href="#DejaVuSans-38"/>
       <use xlink:href="#DejaVuSans-30" x="63.623047"/>
       <use xlink:href="#DejaVuSans-30" x="127.246094"/>
       <use xlink:href="#DejaVuSans-30" x="190.869141"/>
      </g>
     </g>
    </g>
    <g id="xtick_6">
     <g id="line2d_6">
      <g>
       <use xlink:href="#mc6562e197e" x="799.063636" y="479.754375" style="stroke: #000000; stroke-width: 0.8"/>
      </g>
     </g>
     <g id="text_6">
      <!-- 10000 -->
      <g transform="translate(767.251136 501.95125) scale(0.2 -0.2)">
       <defs>
        <path id="DejaVuSans-31" d="M 794 531 
L 1825 531 
L 1825 4091 
L 703 3866 
L 703 4441 
L 1819 4666 
L 2450 4666 
L 2450 531 
L 3481 531 
L 3481 0 
L 794 0 
L 794 531 
z
" transform="scale(0.015625)"/>
       </defs>
       <use xlink:href="#DejaVuSans-31"/>
       <use xlink:href="#DejaVuSans-30" x="63.623047"/>
       <use xlink:href="#DejaVuSans-30" x="127.246094"/>
       <use xlink:href="#DejaVuSans-30" x="190.869141"/>
       <use xlink:href="#DejaVuSans-30" x="254.492188"/>
      </g>
     </g>
    </g>
    <g id="text_7">
     <!-- Number of passes through the data -->
     <g transform="translate(227.428125 532.905937) scale(0.3 -0.3)">
      <defs>
       <path id="DejaVuSans-4e" d="M 628 4666 
L 1478 4666 
L 3547 763 
L 3547 4666 
L 4159 4666 
L 4159 0 
L 3309 0 
L 1241 3903 
L 1241 0 
L 628 0 
L 628 4666 
z
" transform="scale(0.015625)"/>
       <path id="DejaVuSans-75" d="M 544 1381 
L 544 3500 
L 1119 3500 
L 1119 1403 
Q 1119 906 1312 657 
Q 1506 409 1894 409 
Q 2359 409 2629 706 
Q 2900 1003 2900 1516 
L 2900 3500 
L 3475 3500 
L 3475 0 
L 2900 0 
L 2900 538 
Q 2691 219 2414 64 
Q 2138 -91 1772 -91 
Q 1169 -91 856 284 
Q 544 659 544 1381 
z
M 1991 3584 
L 1991 3584 
z
" transform="scale(0.015625)"/>
       <path id="DejaVuSans-6d" d="M 3328 2828 
Q 3544 3216 3844 3400 
Q 4144 3584 4550 3584 
Q 5097 3584 5394 3201 
Q 5691 2819 5691 2113 
L 5691 0 
L 5113 0 
L 5113 2094 
Q 5113 2597 4934 2840 
Q 4756 3084 4391 3084 
Q 3944 3084 3684 2787 
Q 3425 2491 3425 1978 
L 3425 0 
L 2847 0 
L 2847 2094 
Q 2847 2600 2669 2842 
Q 2491 3084 2119 3084 
Q 1678 3084 1418 2786 
Q 1159 2488 1159 1978 
L 1159 0 
L 581 0 
L 581 3500 
L 1159 3500 
L 1159 2956 
Q 1356 3278 1631 3431 
Q 1906 3584 2284 3584 
Q 2666 3584 2933 3390 
Q 3200 3197 3328 2828 
z
" transform="scale(0.015625)"/>
       <path id="DejaVuSans-62" d="M 3116 1747 
Q 3116 2381 2855 2742 
Q 2594 3103 2138 3103 
Q 1681 3103 1420 2742 
Q 1159 2381 1159 1747 
Q 1159 1113 1420 752 
Q 1681 391 2138 391 
Q 2594 391 2855 752 
Q 3116 1113 3116 1747 
z
M 1159 2969 
Q 1341 3281 1617 3432 
Q 1894 3584 2278 3584 
Q 2916 3584 3314 3078 
Q 3713 2572 3713 1747 
Q 3713 922 3314 415 
Q 2916 -91 2278 -91 
Q 1894 -91 1617 61 
Q 1341 213 1159 525 
L 1159 0 
L 581 0 
L 581 4863 
L 1159 4863 
L 1159 2969 
z
" transform="scale(0.015625)"/>
       <path id="DejaVuSans-65" d="M 3597 1894 
L 3597 1613 
L 953 1613 
Q 991 1019 1311 708 
Q 1631 397 2203 397 
Q 2534 397 2845 478 
Q 3156 559 3463 722 
L 3463 178 
Q 3153 47 2828 -22 
Q 2503 -91 2169 -91 
Q 1331 -91 842 396 
Q 353 884 353 1716 
Q 353 2575 817 3079 
Q 1281 3584 2069 3584 
Q 2775 3584 3186 3129 
Q 3597 2675 3597 1894 
z
M 3022 2063 
Q 3016 2534 2758 2815 
Q 2500 3097 2075 3097 
Q 1594 3097 1305 2825 
Q 1016 2553 972 2059 
L 3022 2063 
z
" transform="scale(0.015625)"/>
       <path id="DejaVuSans-72" d="M 2631 2963 
Q 2534 3019 2420 3045 
Q 2306 3072 2169 3072 
Q 1681 3072 1420 2755 
Q 1159 2438 1159 1844 
L 1159 0 
L 581 0 
L 581 3500 
L 1159 3500 
L 1159 2956 
Q 1341 3275 1631 3429 
Q 1922 3584 2338 3584 
Q 2397 3584 2469 3576 
Q 2541 3569 2628 3553 
L 2631 2963 
z
" transform="scale(0.015625)"/>
       <path id="DejaVuSans-20" transform="scale(0.015625)"/>
       <path id="DejaVuSans-6f" d="M 1959 3097 
Q 1497 3097 1228 2736 
Q 959 2375 959 1747 
Q 959 1119 1226 758 
Q 1494 397 1959 397 
Q 2419 397 2687 759 
Q 2956 1122 2956 1747 
Q 2956 2369 2687 2733 
Q 2419 3097 1959 3097 
z
M 1959 3584 
Q 2709 3584 3137 3096 
Q 3566 2609 3566 1747 
Q 3566 888 3137 398 
Q 2709 -91 1959 -91 
Q 1206 -91 779 398 
Q 353 888 353 1747 
Q 353 2609 779 3096 
Q 1206 3584 1959 3584 
z
" transform="scale(0.015625)"/>
       <path id="DejaVuSans-66" d="M 2375 4863 
L 2375 4384 
L 1825 4384 
Q 1516 4384 1395 4259 
Q 1275 4134 1275 3809 
L 1275 3500 
L 2222 3500 
L 2222 3053 
L 1275 3053 
L 1275 0 
L 697 0 
L 697 3053 
L 147 3053 
L 147 3500 
L 697 3500 
L 697 3744 
Q 697 4328 969 4595 
Q 1241 4863 1831 4863 
L 2375 4863 
z
" transform="scale(0.015625)"/>
       <path id="DejaVuSans-70" d="M 1159 525 
L 1159 -1331 
L 581 -1331 
L 581 3500 
L 1159 3500 
L 1159 2969 
Q 1341 3281 1617 3432 
Q 1894 3584 2278 3584 
Q 2916 3584 3314 3078 
Q 3713 2572 3713 1747 
Q 3713 922 3314 415 
Q 2916 -91 2278 -91 
Q 1894 -91 1617 61 
Q 1341 213 1159 525 
z
M 3116 1747 
Q 3116 2381 2855 2742 
Q 2594 3103 2138 3103 
Q 1681 3103 1420 2742 
Q 1159 2381 1159 1747 
Q 1159 1113 1420 752 
Q 1681 391 2138 391 
Q 2594 391 2855 752 
Q 3116 1113 3116 1747 
z
" transform="scale(0.015625)"/>
       <path id="DejaVuSans-61" d="M 2194 1759 
Q 1497 1759 1228 1600 
Q 959 1441 959 1056 
Q 959 750 1161 570 
Q 1363 391 1709 391 
Q 2188 391 2477 730 
Q 2766 1069 2766 1631 
L 2766 1759 
L 2194 1759 
z
M 3341 1997 
L 3341 0 
L 2766 0 
L 2766 531 
Q 2569 213 2275 61 
Q 1981 -91 1556 -91 
Q 1019 -91 701 211 
Q 384 513 384 1019 
Q 384 1609 779 1909 
Q 1175 2209 1959 2209 
L 2766 2209 
L 2766 2266 
Q 2766 2663 2505 2880 
Q 2244 3097 1772 3097 
Q 1472 3097 1187 3025 
Q 903 2953 641 2809 
L 641 3341 
Q 956 3463 1253 3523 
Q 1550 3584 1831 3584 
Q 2591 3584 2966 3190 
Q 3341 2797 3341 1997 
z
" transform="scale(0.015625)"/>
       <path id="DejaVuSans-73" d="M 2834 3397 
L 2834 2853 
Q 2591 2978 2328 3040 
Q 2066 3103 1784 3103 
Q 1356 3103 1142 2972 
Q 928 2841 928 2578 
Q 928 2378 1081 2264 
Q 1234 2150 1697 2047 
L 1894 2003 
Q 2506 1872 2764 1633 
Q 3022 1394 3022 966 
Q 3022 478 2636 193 
Q 2250 -91 1575 -91 
Q 1294 -91 989 -36 
Q 684 19 347 128 
L 347 722 
Q 666 556 975 473 
Q 1284 391 1588 391 
Q 1994 391 2212 530 
Q 2431 669 2431 922 
Q 2431 1156 2273 1281 
Q 2116 1406 1581 1522 
L 1381 1569 
Q 847 1681 609 1914 
Q 372 2147 372 2553 
Q 372 3047 722 3315 
Q 1072 3584 1716 3584 
Q 2034 3584 2315 3537 
Q 2597 3491 2834 3397 
z
" transform="scale(0.015625)"/>
       <path id="DejaVuSans-74" d="M 1172 4494 
L 1172 3500 
L 2356 3500 
L 2356 3053 
L 1172 3053 
L 1172 1153 
Q 1172 725 1289 603 
Q 1406 481 1766 481 
L 2356 481 
L 2356 0 
L 1766 0 
Q 1100 0 847 248 
Q 594 497 594 1153 
L 594 3053 
L 172 3053 
L 172 3500 
L 594 3500 
L 594 4494 
L 1172 4494 
z
" transform="scale(0.015625)"/>
       <path id="DejaVuSans-68" d="M 3513 2113 
L 3513 0 
L 2938 0 
L 2938 2094 
Q 2938 2591 2744 2837 
Q 2550 3084 2163 3084 
Q 1697 3084 1428 2787 
Q 1159 2491 1159 1978 
L 1159 0 
L 581 0 
L 581 4863 
L 1159 4863 
L 1159 2956 
Q 1366 3272 1645 3428 
Q 1925 3584 2291 3584 
Q 2894 3584 3203 3211 
Q 3513 2838 3513 2113 
z
" transform="scale(0.015625)"/>
       <path id="DejaVuSans-67" d="M 2906 1791 
Q 2906 2416 2648 2759 
Q 2391 3103 1925 3103 
Q 1463 3103 1205 2759 
Q 947 2416 947 1791 
Q 947 1169 1205 825 
Q 1463 481 1925 481 
Q 2391 481 2648 825 
Q 2906 1169 2906 1791 
z
M 3481 434 
Q 3481 -459 3084 -895 
Q 2688 -1331 1869 -1331 
Q 1566 -1331 1297 -1286 
Q 1028 -1241 775 -1147 
L 775 -588 
Q 1028 -725 1275 -790 
Q 1522 -856 1778 -856 
Q 2344 -856 2625 -561 
Q 2906 -266 2906 331 
L 2906 616 
Q 2728 306 2450 153 
Q 2172 0 1784 0 
Q 1141 0 747 490 
Q 353 981 353 1791 
Q 353 2603 747 3093 
Q 1141 3584 1784 3584 
Q 2172 3584 2450 3431 
Q 2728 3278 2906 2969 
L 2906 3500 
L 3481 3500 
L 3481 434 
z
" transform="scale(0.015625)"/>
       <path id="DejaVuSans-64" d="M 2906 2969 
L 2906 4863 
L 3481 4863 
L 3481 0 
L 2906 0 
L 2906 525 
Q 2725 213 2448 61 
Q 2172 -91 1784 -91 
Q 1150 -91 751 415 
Q 353 922 353 1747 
Q 353 2572 751 3078 
Q 1150 3584 1784 3584 
Q 2172 3584 2448 3432 
Q 2725 3281 2906 2969 
z
M 947 1747 
Q 947 1113 1208 752 
Q 1469 391 1925 391 
Q 2381 391 2643 752 
Q 2906 1113 2906 1747 
Q 2906 2381 2643 2742 
Q 2381 3103 1925 3103 
Q 1469 3103 1208 2742 
Q 947 2381 947 1747 
z
" transform="scale(0.015625)"/>
      </defs>
      <use xlink:href="#DejaVuSans-4e"/>
      <use xlink:href="#DejaVuSans-75" x="74.804688"/>
      <use xlink:href="#DejaVuSans-6d" x="138.183594"/>
      <use xlink:href="#DejaVuSans-62" x="235.595703"/>
      <use xlink:href="#DejaVuSans-65" x="299.072266"/>
      <use xlink:href="#DejaVuSans-72" x="360.595703"/>
      <use xlink:href="#DejaVuSans-20" x="401.708984"/>
      <use xlink:href="#DejaVuSans-6f" x="433.496094"/>
      <use xlink:href="#DejaVuSans-66" x="494.677734"/>
      <use xlink:href="#DejaVuSans-20" x="529.882812"/>
      <use xlink:href="#DejaVuSans-70" x="561.669922"/>
      <use xlink:href="#DejaVuSans-61" x="625.146484"/>
      <use xlink:href="#DejaVuSans-73" x="686.425781"/>
      <use xlink:href="#DejaVuSans-73" x="738.525391"/>
      <use xlink:href="#DejaVuSans-65" x="790.625"/>
      <use xlink:href="#DejaVuSans-73" x="852.148438"/>
      <use xlink:href="#DejaVuSans-20" x="904.248047"/>
      <use xlink:href="#DejaVuSans-74" x="936.035156"/>
      <use xlink:href="#DejaVuSans-68" x="975.244141"/>
      <use xlink:href="#DejaVuSans-72" x="1038.623047"/>
      <use xlink:href="#DejaVuSans-6f" x="1077.486328"/>
      <use xlink:href="#DejaVuSans-75" x="1138.667969"/>
      <use xlink:href="#DejaVuSans-67" x="1202.046875"/>
      <use xlink:href="#DejaVuSans-68" x="1265.523438"/>
      <use xlink:href="#DejaVuSans-20" x="1328.902344"/>
      <use xlink:href="#DejaVuSans-74" x="1360.689453"/>
      <use xlink:href="#DejaVuSans-68" x="1399.898438"/>
      <use xlink:href="#DejaVuSans-65" x="1463.277344"/>
      <use xlink:href="#DejaVuSans-20" x="1524.800781"/>
      <use xlink:href="#DejaVuSans-64" x="1556.587891"/>
      <use xlink:href="#DejaVuSans-61" x="1620.064453"/>
      <use xlink:href="#DejaVuSans-74" x="1681.34375"/>
      <use xlink:href="#DejaVuSans-61" x="1720.552734"/>
     </g>
    </g>
   </g>
   <g id="matplotlib.axis_2">
    <g id="ytick_1">
     <g id="line2d_7">
      <defs>
       <path id="m55bb45ec84" d="M 0 0 
L -3.5 0 
" style="stroke: #000000; stroke-width: 0.8"/>
      </defs>
      <g>
       <use xlink:href="#m55bb45ec84" x="159.9" y="455.3253" style="stroke: #000000; stroke-width: 0.8"/>
      </g>
     </g>
     <g id="text_8">
      <!-- $\mathdefault{10^{-5}}$ -->
      <g transform="translate(82.4 466.722957) scale(0.3 -0.3)">
       <defs>
        <path id="DejaVuSans-2212" d="M 678 2272 
L 4684 2272 
L 4684 1741 
L 678 1741 
L 678 2272 
z
" transform="scale(0.015625)"/>
        <path id="DejaVuSans-35" d="M 691 4666 
L 3169 4666 
L 3169 4134 
L 1269 4134 
L 1269 2991 
Q 1406 3038 1543 3061 
Q 1681 3084 1819 3084 
Q 2600 3084 3056 2656 
Q 3513 2228 3513 1497 
Q 3513 744 3044 326 
Q 2575 -91 1722 -91 
Q 1428 -91 1123 -41 
Q 819 9 494 109 
L 494 744 
Q 775 591 1075 516 
Q 1375 441 1709 441 
Q 2250 441 2565 725 
Q 2881 1009 2881 1497 
Q 2881 1984 2565 2268 
Q 2250 2553 1709 2553 
Q 1456 2553 1204 2497 
Q 953 2441 691 2322 
L 691 4666 
z
" transform="scale(0.015625)"/>
       </defs>
       <use xlink:href="#DejaVuSans-31" transform="translate(0 0.684375)"/>
       <use xlink:href="#DejaVuSans-30" transform="translate(63.623047 0.684375)"/>
       <use xlink:href="#DejaVuSans-2212" transform="translate(128.203125 38.965625) scale(0.7)"/>
       <use xlink:href="#DejaVuSans-35" transform="translate(186.855469 38.965625) scale(0.7)"/>
      </g>
     </g>
    </g>
    <g id="ytick_2">
     <g id="line2d_8">
      <g>
       <use xlink:href="#m55bb45ec84" x="159.9" y="375.539115" style="stroke: #000000; stroke-width: 0.8"/>
      </g>
     </g>
     <g id="text_9">
      <!-- $\mathdefault{10^{-4}}$ -->
      <g transform="translate(82.4 386.936772) scale(0.3 -0.3)">
       <use xlink:href="#DejaVuSans-31" transform="translate(0 0.684375)"/>
       <use xlink:href="#DejaVuSans-30" transform="translate(63.623047 0.684375)"/>
       <use xlink:href="#DejaVuSans-2212" transform="translate(128.203125 38.965625) scale(0.7)"/>
       <use xlink:href="#DejaVuSans-34" transform="translate(186.855469 38.965625) scale(0.7)"/>
      </g>
     </g>
    </g>
    <g id="ytick_3">
     <g id="line2d_9">
      <g>
       <use xlink:href="#m55bb45ec84" x="159.9" y="295.75293" style="stroke: #000000; stroke-width: 0.8"/>
      </g>
     </g>
     <g id="text_10">
      <!-- $\mathdefault{10^{-3}}$ -->
      <g transform="translate(82.4 307.150587) scale(0.3 -0.3)">
       <defs>
        <path id="DejaVuSans-33" d="M 2597 2516 
Q 3050 2419 3304 2112 
Q 3559 1806 3559 1356 
Q 3559 666 3084 287 
Q 2609 -91 1734 -91 
Q 1441 -91 1130 -33 
Q 819 25 488 141 
L 488 750 
Q 750 597 1062 519 
Q 1375 441 1716 441 
Q 2309 441 2620 675 
Q 2931 909 2931 1356 
Q 2931 1769 2642 2001 
Q 2353 2234 1838 2234 
L 1294 2234 
L 1294 2753 
L 1863 2753 
Q 2328 2753 2575 2939 
Q 2822 3125 2822 3475 
Q 2822 3834 2567 4026 
Q 2313 4219 1838 4219 
Q 1578 4219 1281 4162 
Q 984 4106 628 3988 
L 628 4550 
Q 988 4650 1302 4700 
Q 1616 4750 1894 4750 
Q 2613 4750 3031 4423 
Q 3450 4097 3450 3541 
Q 3450 3153 3228 2886 
Q 3006 2619 2597 2516 
z
" transform="scale(0.015625)"/>
       </defs>
       <use xlink:href="#DejaVuSans-31" transform="translate(0 0.765625)"/>
       <use xlink:href="#DejaVuSans-30" transform="translate(63.623047 0.765625)"/>
       <use xlink:href="#DejaVuSans-2212" transform="translate(128.203125 39.046875) scale(0.7)"/>
       <use xlink:href="#DejaVuSans-33" transform="translate(186.855469 39.046875) scale(0.7)"/>
      </g>
     </g>
    </g>
    <g id="ytick_4">
     <g id="line2d_10">
      <g>
       <use xlink:href="#m55bb45ec84" x="159.9" y="215.966745" style="stroke: #000000; stroke-width: 0.8"/>
      </g>
     </g>
     <g id="text_11">
      <!-- $\mathdefault{10^{-2}}$ -->
      <g transform="translate(82.4 227.364401) scale(0.3 -0.3)">
       <use xlink:href="#DejaVuSans-31" transform="translate(0 0.765625)"/>
       <use xlink:href="#DejaVuSans-30" transform="translate(63.623047 0.765625)"/>
       <use xlink:href="#DejaVuSans-2212" transform="translate(128.203125 39.046875) scale(0.7)"/>
       <use xlink:href="#DejaVuSans-32" transform="translate(186.855469 39.046875) scale(0.7)"/>
      </g>
     </g>
    </g>
    <g id="ytick_5">
     <g id="line2d_11">
      <g>
       <use xlink:href="#m55bb45ec84" x="159.9" y="136.18056" style="stroke: #000000; stroke-width: 0.8"/>
      </g>
     </g>
     <g id="text_12">
      <!-- $\mathdefault{10^{-1}}$ -->
      <g transform="translate(82.4 147.578216) scale(0.3 -0.3)">
       <use xlink:href="#DejaVuSans-31" transform="translate(0 0.684375)"/>
       <use xlink:href="#DejaVuSans-30" transform="translate(63.623047 0.684375)"/>
       <use xlink:href="#DejaVuSans-2212" transform="translate(128.203125 38.965625) scale(0.7)"/>
       <use xlink:href="#DejaVuSans-31" transform="translate(186.855469 38.965625) scale(0.7)"/>
      </g>
     </g>
    </g>
    <g id="ytick_6">
     <g id="line2d_12">
      <g>
       <use xlink:href="#m55bb45ec84" x="159.9" y="56.394375" style="stroke: #000000; stroke-width: 0.8"/>
      </g>
     </g>
     <g id="text_13">
      <!-- $\mathdefault{10^{0}}$ -->
      <g transform="translate(100.1 67.792031) scale(0.3 -0.3)">
       <use xlink:href="#DejaVuSans-31" transform="translate(0 0.765625)"/>
       <use xlink:href="#DejaVuSans-30" transform="translate(63.623047 0.765625)"/>
       <use xlink:href="#DejaVuSans-30" transform="translate(128.203125 39.046875) scale(0.7)"/>
      </g>
     </g>
    </g>
    <g id="ytick_7">
     <g id="line2d_13">
      <defs>
       <path id="m64491af525" d="M 0 0 
L -2 0 
" style="stroke: #000000; stroke-width: 0.6"/>
      </defs>
      <g>
       <use xlink:href="#m64491af525" x="159.9" y="479.343335" style="stroke: #000000; stroke-width: 0.6"/>
      </g>
     </g>
    </g>
    <g id="ytick_8">
     <g id="line2d_14">
      <g>
       <use xlink:href="#m64491af525" x="159.9" y="473.025766" style="stroke: #000000; stroke-width: 0.6"/>
      </g>
     </g>
    </g>
    <g id="ytick_9">
     <g id="line2d_15">
      <g>
       <use xlink:href="#m64491af525" x="159.9" y="467.684337" style="stroke: #000000; stroke-width: 0.6"/>
      </g>
     </g>
    </g>
    <g id="ytick_10">
     <g id="line2d_16">
      <g>
       <use xlink:href="#m64491af525" x="159.9" y="463.057381" style="stroke: #000000; stroke-width: 0.6"/>
      </g>
     </g>
    </g>
    <g id="ytick_11">
     <g id="line2d_17">
      <g>
       <use xlink:href="#m64491af525" x="159.9" y="458.976116" style="stroke: #000000; stroke-width: 0.6"/>
      </g>
     </g>
    </g>
    <g id="ytick_12">
     <g id="line2d_18">
      <g>
       <use xlink:href="#m64491af525" x="159.9" y="431.307265" style="stroke: #000000; stroke-width: 0.6"/>
      </g>
     </g>
    </g>
    <g id="ytick_13">
     <g id="line2d_19">
      <g>
       <use xlink:href="#m64491af525" x="159.9" y="417.257616" style="stroke: #000000; stroke-width: 0.6"/>
      </g>
     </g>
    </g>
    <g id="ytick_14">
     <g id="line2d_20">
      <g>
       <use xlink:href="#m64491af525" x="159.9" y="407.289231" style="stroke: #000000; stroke-width: 0.6"/>
      </g>
     </g>
    </g>
    <g id="ytick_15">
     <g id="line2d_21">
      <g>
       <use xlink:href="#m64491af525" x="159.9" y="399.55715" style="stroke: #000000; stroke-width: 0.6"/>
      </g>
     </g>
    </g>
    <g id="ytick_16">
     <g id="line2d_22">
      <g>
       <use xlink:href="#m64491af525" x="159.9" y="393.239581" style="stroke: #000000; stroke-width: 0.6"/>
      </g>
     </g>
    </g>
    <g id="ytick_17">
     <g id="line2d_23">
      <g>
       <use xlink:href="#m64491af525" x="159.9" y="387.898152" style="stroke: #000000; stroke-width: 0.6"/>
      </g>
     </g>
    </g>
    <g id="ytick_18">
     <g id="line2d_24">
      <g>
       <use xlink:href="#m64491af525" x="159.9" y="383.271196" style="stroke: #000000; stroke-width: 0.6"/>
      </g>
     </g>
    </g>
    <g id="ytick_19">
     <g id="line2d_25">
      <g>
       <use xlink:href="#m64491af525" x="159.9" y="379.189931" style="stroke: #000000; stroke-width: 0.6"/>
      </g>
     </g>
    </g>
    <g id="ytick_20">
     <g id="line2d_26">
      <g>
       <use xlink:href="#m64491af525" x="159.9" y="351.52108" style="stroke: #000000; stroke-width: 0.6"/>
      </g>
     </g>
    </g>
    <g id="ytick_21">
     <g id="line2d_27">
      <g>
       <use xlink:href="#m64491af525" x="159.9" y="337.471431" style="stroke: #000000; stroke-width: 0.6"/>
      </g>
     </g>
    </g>
    <g id="ytick_22">
     <g id="line2d_28">
      <g>
       <use xlink:href="#m64491af525" x="159.9" y="327.503045" style="stroke: #000000; stroke-width: 0.6"/>
      </g>
     </g>
    </g>
    <g id="ytick_23">
     <g id="line2d_29">
      <g>
       <use xlink:href="#m64491af525" x="159.9" y="319.770965" style="stroke: #000000; stroke-width: 0.6"/>
      </g>
     </g>
    </g>
    <g id="ytick_24">
     <g id="line2d_30">
      <g>
       <use xlink:href="#m64491af525" x="159.9" y="313.453396" style="stroke: #000000; stroke-width: 0.6"/>
      </g>
     </g>
    </g>
    <g id="ytick_25">
     <g id="line2d_31">
      <g>
       <use xlink:href="#m64491af525" x="159.9" y="308.111967" style="stroke: #000000; stroke-width: 0.6"/>
      </g>
     </g>
    </g>
    <g id="ytick_26">
     <g id="line2d_32">
      <g>
       <use xlink:href="#m64491af525" x="159.9" y="303.485011" style="stroke: #000000; stroke-width: 0.6"/>
      </g>
     </g>
    </g>
    <g id="ytick_27">
     <g id="line2d_33">
      <g>
       <use xlink:href="#m64491af525" x="159.9" y="299.403746" style="stroke: #000000; stroke-width: 0.6"/>
      </g>
     </g>
    </g>
    <g id="ytick_28">
     <g id="line2d_34">
      <g>
       <use xlink:href="#m64491af525" x="159.9" y="271.734895" style="stroke: #000000; stroke-width: 0.6"/>
      </g>
     </g>
    </g>
    <g id="ytick_29">
     <g id="line2d_35">
      <g>
       <use xlink:href="#m64491af525" x="159.9" y="257.685246" style="stroke: #000000; stroke-width: 0.6"/>
      </g>
     </g>
    </g>
    <g id="ytick_30">
     <g id="line2d_36">
      <g>
       <use xlink:href="#m64491af525" x="159.9" y="247.71686" style="stroke: #000000; stroke-width: 0.6"/>
      </g>
     </g>
    </g>
    <g id="ytick_31">
     <g id="line2d_37">
      <g>
       <use xlink:href="#m64491af525" x="159.9" y="239.98478" style="stroke: #000000; stroke-width: 0.6"/>
      </g>
     </g>
    </g>
    <g id="ytick_32">
     <g id="line2d_38">
      <g>
       <use xlink:href="#m64491af525" x="159.9" y="233.667211" style="stroke: #000000; stroke-width: 0.6"/>
      </g>
     </g>
    </g>
    <g id="ytick_33">
     <g id="line2d_39">
      <g>
       <use xlink:href="#m64491af525" x="159.9" y="228.325782" style="stroke: #000000; stroke-width: 0.6"/>
      </g>
     </g>
    </g>
    <g id="ytick_34">
     <g id="line2d_40">
      <g>
       <use xlink:href="#m64491af525" x="159.9" y="223.698825" style="stroke: #000000; stroke-width: 0.6"/>
      </g>
     </g>
    </g>
    <g id="ytick_35">
     <g id="line2d_41">
      <g>
       <use xlink:href="#m64491af525" x="159.9" y="219.617561" style="stroke: #000000; stroke-width: 0.6"/>
      </g>
     </g>
    </g>
    <g id="ytick_36">
     <g id="line2d_42">
      <g>
       <use xlink:href="#m64491af525" x="159.9" y="191.94871" style="stroke: #000000; stroke-width: 0.6"/>
      </g>
     </g>
    </g>
    <g id="ytick_37">
     <g id="line2d_43">
      <g>
       <use xlink:href="#m64491af525" x="159.9" y="177.89906" style="stroke: #000000; stroke-width: 0.6"/>
      </g>
     </g>
    </g>
    <g id="ytick_38">
     <g id="line2d_44">
      <g>
       <use xlink:href="#m64491af525" x="159.9" y="167.930675" style="stroke: #000000; stroke-width: 0.6"/>
      </g>
     </g>
    </g>
    <g id="ytick_39">
     <g id="line2d_45">
      <g>
       <use xlink:href="#m64491af525" x="159.9" y="160.198595" style="stroke: #000000; stroke-width: 0.6"/>
      </g>
     </g>
    </g>
    <g id="ytick_40">
     <g id="line2d_46">
      <g>
       <use xlink:href="#m64491af525" x="159.9" y="153.881025" style="stroke: #000000; stroke-width: 0.6"/>
      </g>
     </g>
    </g>
    <g id="ytick_41">
     <g id="line2d_47">
      <g>
       <use xlink:href="#m64491af525" x="159.9" y="148.539597" style="stroke: #000000; stroke-width: 0.6"/>
      </g>
     </g>
    </g>
    <g id="ytick_42">
     <g id="line2d_48">
      <g>
       <use xlink:href="#m64491af525" x="159.9" y="143.91264" style="stroke: #000000; stroke-width: 0.6"/>
      </g>
     </g>
    </g>
    <g id="ytick_43">
     <g id="line2d_49">
      <g>
       <use xlink:href="#m64491af525" x="159.9" y="139.831376" style="stroke: #000000; stroke-width: 0.6"/>
      </g>
     </g>
    </g>
    <g id="ytick_44">
     <g id="line2d_50">
      <g>
       <use xlink:href="#m64491af525" x="159.9" y="112.162525" style="stroke: #000000; stroke-width: 0.6"/>
      </g>
     </g>
    </g>
    <g id="ytick_45">
     <g id="line2d_51">
      <g>
       <use xlink:href="#m64491af525" x="159.9" y="98.112875" style="stroke: #000000; stroke-width: 0.6"/>
      </g>
     </g>
    </g>
    <g id="ytick_46">
     <g id="line2d_52">
      <g>
       <use xlink:href="#m64491af525" x="159.9" y="88.14449" style="stroke: #000000; stroke-width: 0.6"/>
      </g>
     </g>
    </g>
    <g id="ytick_47">
     <g id="line2d_53">
      <g>
       <use xlink:href="#m64491af525" x="159.9" y="80.41241" style="stroke: #000000; stroke-width: 0.6"/>
      </g>
     </g>
    </g>
    <g id="ytick_48">
     <g id="line2d_54">
      <g>
       <use xlink:href="#m64491af525" x="159.9" y="74.09484" style="stroke: #000000; stroke-width: 0.6"/>
      </g>
     </g>
    </g>
    <g id="ytick_49">
     <g id="line2d_55">
      <g>
       <use xlink:href="#m64491af525" x="159.9" y="68.753411" style="stroke: #000000; stroke-width: 0.6"/>
      </g>
     </g>
    </g>
    <g id="ytick_50">
     <g id="line2d_56">
      <g>
       <use xlink:href="#m64491af525" x="159.9" y="64.126455" style="stroke: #000000; stroke-width: 0.6"/>
      </g>
     </g>
    </g>
    <g id="ytick_51">
     <g id="line2d_57">
      <g>
       <use xlink:href="#m64491af525" x="159.9" y="60.045191" style="stroke: #000000; stroke-width: 0.6"/>
      </g>
     </g>
    </g>
    <g id="text_14">
     <!-- $\frac{f(x^k)-f(x^*)}{f(x^0)-f(x^*)}$ -->
     <g transform="translate(54.4 342.994375) rotate(-90) scale(0.4 -0.4)">
      <defs>
       <path id="DejaVuSans-Oblique-66" d="M 3059 4863 
L 2969 4384 
L 2419 4384 
Q 2106 4384 1964 4261 
Q 1822 4138 1753 3809 
L 1691 3500 
L 2638 3500 
L 2553 3053 
L 1606 3053 
L 1013 0 
L 434 0 
L 1031 3053 
L 481 3053 
L 563 3500 
L 1113 3500 
L 1159 3744 
Q 1278 4363 1576 4613 
Q 1875 4863 2516 4863 
L 3059 4863 
z
" transform="scale(0.015625)"/>
       <path id="DejaVuSans-28" d="M 1984 4856 
Q 1566 4138 1362 3434 
Q 1159 2731 1159 2009 
Q 1159 1288 1364 580 
Q 1569 -128 1984 -844 
L 1484 -844 
Q 1016 -109 783 600 
Q 550 1309 550 2009 
Q 550 2706 781 3412 
Q 1013 4119 1484 4856 
L 1984 4856 
z
" transform="scale(0.015625)"/>
       <path id="DejaVuSans-Oblique-78" d="M 3841 3500 
L 2234 1784 
L 3219 0 
L 2559 0 
L 1819 1388 
L 531 0 
L -166 0 
L 1556 1844 
L 641 3500 
L 1300 3500 
L 1972 2234 
L 3144 3500 
L 3841 3500 
z
" transform="scale(0.015625)"/>
       <path id="DejaVuSans-Oblique-6b" d="M 1172 4863 
L 1747 4863 
L 1197 2028 
L 3169 3500 
L 3916 3500 
L 1716 1825 
L 3322 0 
L 2625 0 
L 1131 1709 
L 800 0 
L 225 0 
L 1172 4863 
z
" transform="scale(0.015625)"/>
       <path id="DejaVuSans-29" d="M 513 4856 
L 1013 4856 
Q 1481 4119 1714 3412 
Q 1947 2706 1947 2009 
Q 1947 1309 1714 600 
Q 1481 -109 1013 -844 
L 513 -844 
Q 928 -128 1133 580 
Q 1338 1288 1338 2009 
Q 1338 2731 1133 3434 
Q 928 4138 513 4856 
z
" transform="scale(0.015625)"/>
       <path id="DejaVuSans-2a" d="M 3009 3897 
L 1888 3291 
L 3009 2681 
L 2828 2375 
L 1778 3009 
L 1778 1831 
L 1422 1831 
L 1422 3009 
L 372 2375 
L 191 2681 
L 1313 3291 
L 191 3897 
L 372 4206 
L 1422 3572 
L 1422 4750 
L 1778 4750 
L 1778 3572 
L 2828 4206 
L 3009 3897 
z
" transform="scale(0.015625)"/>
      </defs>
      <use xlink:href="#DejaVuSans-Oblique-66" transform="translate(1 53.970781) scale(0.7)"/>
      <use xlink:href="#DejaVuSans-28" transform="translate(25.643555 53.970781) scale(0.7)"/>
      <use xlink:href="#DejaVuSans-Oblique-78" transform="translate(52.953125 53.970781) scale(0.7)"/>
      <use xlink:href="#DejaVuSans-Oblique-6b" transform="translate(97.505208 80.767656) scale(0.49)"/>
      <use xlink:href="#DejaVuSans-29" transform="translate(127.795247 53.970781) scale(0.7)"/>
      <use xlink:href="#DejaVuSans-2212" transform="translate(168.742513 53.970781) scale(0.7)"/>
      <use xlink:href="#DejaVuSans-Oblique-66" transform="translate(241.032552 53.970781) scale(0.7)"/>
      <use xlink:href="#DejaVuSans-28" transform="translate(265.676107 53.970781) scale(0.7)"/>
      <use xlink:href="#DejaVuSans-Oblique-78" transform="translate(292.985677 53.970781) scale(0.7)"/>
      <use xlink:href="#DejaVuSans-2a" transform="translate(347.084147 80.767656) scale(0.49)"/>
      <use xlink:href="#DejaVuSans-29" transform="translate(383.044596 53.970781) scale(0.7)"/>
      <use xlink:href="#DejaVuSans-Oblique-66" transform="translate(0 -49.674531) scale(0.7)"/>
      <use xlink:href="#DejaVuSans-28" transform="translate(24.643555 -49.674531) scale(0.7)"/>
      <use xlink:href="#DejaVuSans-Oblique-78" transform="translate(51.953125 -49.674531) scale(0.7)"/>
      <use xlink:href="#DejaVuSans-30" transform="translate(96.505208 -22.877656) scale(0.49)"/>
      <use xlink:href="#DejaVuSans-29" transform="translate(129.594564 -49.674531) scale(0.7)"/>
      <use xlink:href="#DejaVuSans-2212" transform="translate(170.541829 -49.674531) scale(0.7)"/>
      <use xlink:href="#DejaVuSans-Oblique-66" transform="translate(242.831868 -49.674531) scale(0.7)"/>
      <use xlink:href="#DejaVuSans-28" transform="translate(267.475423 -49.674531) scale(0.7)"/>
      <use xlink:href="#DejaVuSans-Oblique-78" transform="translate(294.784993 -49.674531) scale(0.7)"/>
      <use xlink:href="#DejaVuSans-2a" transform="translate(348.883464 -22.877656) scale(0.49)"/>
      <use xlink:href="#DejaVuSans-29" transform="translate(384.843913 -49.674531) scale(0.7)"/>
      <path d="M 0 19.739531 
L 0 25.989531 
L 412.153483 25.989531 
L 412.153483 19.739531 
L 0 19.739531 
z
"/>
     </g>
    </g>
   </g>
   <g id="line2d_58">
    <path d="M 190.336364 56.394375 
L 191.128977 56.747032 
L 191.921591 57.799364 
L 192.714205 59.643561 
L 193.506818 62.373855 
L 194.299432 66.211625 
L 195.092045 71.5793 
L 195.884659 79.132428 
L 196.677273 90.479498 
L 197.469886 110.298564 
L 198.2625 163.294763 
L 199.055114 146.556052 
L 199.847727 122.992237 
L 200.640341 133.695843 
L 201.432955 179.048617 
L 203.018182 145.134416 
L 203.810795 157.633792 
L 204.603409 189.461702 
L 205.396023 167.53193 
L 206.188636 162.573808 
L 206.98125 185.956655 
L 207.773864 185.83586 
L 208.566477 171.540117 
L 209.359091 187.167949 
L 210.151705 197.397713 
L 210.944318 182.793981 
L 211.736932 193.382563 
L 212.529545 207.180685 
L 213.322159 193.351774 
L 214.114773 206.264796 
L 214.907386 215.33231 
L 215.7 205.590625 
L 216.492614 222.610064 
L 217.285227 224.545304 
L 218.077841 218.628818 
L 218.870455 242.994872 
L 219.663068 229.21864 
L 220.455682 242.085449 
L 221.248295 248.615099 
L 222.040909 235.232681 
L 222.833523 267.419196 
L 223.626136 245.043547 
L 224.41875 261.544069 
L 225.211364 258.970161 
L 226.003977 249.234983 
L 226.796591 272.121642 
L 227.589205 247.025892 
L 228.381818 273.84961 
L 229.174432 253.786033 
L 229.967045 267.578829 
L 230.759659 263.923642 
L 231.552273 261.916815 
L 232.344886 279.556615 
L 233.1375 266.503673 
L 233.930114 293.051076 
L 234.722727 273.914693 
L 235.515341 295.22778 
L 236.307955 293.122581 
L 237.100568 296.880308 
L 237.893182 312.915169 
L 238.685795 296.985783 
L 239.478409 323.917651 
L 240.271023 295.001063 
L 241.063636 308.344074 
L 241.85625 309.781901 
L 242.648864 298.157441 
L 243.441477 312.982028 
L 244.234091 295.411247 
L 245.026705 304.876355 
L 246.611932 294.407097 
L 247.404545 302.881848 
L 248.197159 289.958496 
L 248.989773 301.973091 
L 249.782386 297.31086 
L 250.575 294.508944 
L 251.367614 306.742367 
L 252.160227 297.954624 
L 252.952841 310.263201 
L 253.745455 308.299223 
L 254.538068 314.5983 
L 255.330682 313.364988 
L 256.123295 312.878717 
L 256.915909 323.071819 
L 257.708523 319.563204 
L 258.501136 328.125511 
L 259.29375 321.205549 
L 260.086364 328.137029 
L 260.878977 327.441172 
L 261.671591 329.20113 
L 262.464205 329.752019 
L 263.256818 326.759845 
L 264.049432 330.084259 
L 264.842045 322.867971 
L 265.634659 333.193485 
L 266.427273 327.372239 
L 267.219886 330.714229 
L 268.0125 336.602502 
L 268.805114 329.104571 
L 269.597727 341.32149 
L 270.390341 330.370229 
L 271.182955 338.013271 
L 271.975568 334.991007 
L 272.768182 330.673804 
L 273.560795 353.448331 
L 274.353409 335.957469 
L 275.146023 348.585605 
L 275.938636 345.487742 
L 276.73125 332.295491 
L 277.523864 347.184992 
L 278.316477 318.091739 
L 279.109091 344.849311 
L 279.901705 325.348146 
L 280.694318 327.210994 
L 281.486932 337.733369 
L 282.279545 316.693442 
L 283.072159 342.646494 
L 283.864773 330.358857 
L 284.657386 337.087823 
L 285.45 339.840043 
L 286.242614 333.00565 
L 287.035227 342.959372 
L 287.827841 335.45053 
L 288.620455 336.359167 
L 289.413068 347.207536 
L 290.205682 334.229377 
L 290.998295 354.170498 
L 291.790909 339.831822 
L 292.583523 353.416962 
L 293.376136 346.141119 
L 294.16875 349.43845 
L 294.961364 358.110154 
L 295.753977 346.851913 
L 296.546591 371.061198 
L 297.339205 350.923552 
L 298.131818 366.494471 
L 298.924432 349.015426 
L 299.717045 376.442962 
L 300.509659 354.669267 
L 301.302273 368.286076 
L 302.8875 355.581032 
L 303.680114 380.83295 
L 304.472727 355.086296 
L 305.265341 378.821334 
L 306.057955 377.472554 
L 306.850568 378.061296 
L 307.643182 395.296302 
L 308.435795 373.924001 
L 309.228409 388.078456 
L 310.021023 396.485276 
L 310.813636 390.541196 
L 311.60625 396.905517 
L 312.398864 393.893964 
L 313.191477 393.549722 
L 313.984091 383.881473 
L 314.776705 386.250855 
L 315.569318 391.832901 
L 316.361932 364.065122 
L 317.154545 371.690711 
L 317.947159 370.998952 
L 318.739773 371.061598 
L 319.532386 380.548212 
L 320.325 368.822778 
L 321.117614 366.64678 
L 321.910227 362.10715 
L 322.702841 369.096093 
L 323.495455 371.526052 
L 324.288068 390.497084 
L 325.080682 373.592291 
L 325.873295 375.383408 
L 326.665909 374.739998 
L 327.458523 387.519693 
L 328.251136 392.144554 
L 329.836364 359.003353 
L 330.628977 374.954855 
L 331.421591 405.402147 
L 332.214205 376.238558 
L 333.006818 358.419826 
L 333.799432 353.904138 
L 334.592045 377.718923 
L 335.384659 389.539948 
L 336.177273 354.67165 
L 336.969886 354.479529 
L 337.7625 356.030762 
L 338.555114 378.143574 
L 339.347727 390.975543 
L 340.140341 356.53506 
L 340.932955 365.344184 
L 341.725568 370.083138 
L 342.518182 392.399152 
L 343.310795 364.213137 
L 344.103409 360.012083 
L 344.896023 374.385518 
L 345.688636 378.203619 
L 346.48125 403.065842 
L 347.273864 351.800691 
L 348.066477 397.356752 
L 348.859091 350.166185 
L 349.651705 384.497589 
L 350.444318 404.482507 
L 351.236932 368.26498 
L 352.029545 388.093855 
L 352.822159 342.536558 
L 353.614773 371.081429 
L 354.407386 387.327847 
L 355.2 344.211197 
L 355.992614 371.545603 
L 356.785227 352.067008 
L 357.577841 361.999457 
L 358.370455 383.963193 
L 359.163068 346.627859 
L 359.955682 376.29984 
L 360.748295 345.733653 
L 361.540909 415.797414 
L 362.333523 334.111013 
L 363.126136 357.774103 
L 363.91875 342.368637 
L 364.711364 335.028143 
L 365.503977 391.319006 
L 366.296591 321.357513 
L 367.089205 381.727376 
L 367.881818 340.272643 
L 368.674432 392.71647 
L 369.467045 333.22633 
L 370.259659 333.29547 
L 371.052273 345.897179 
L 371.844886 329.326347 
L 372.6375 430.438911 
L 373.430114 346.753453 
L 374.222727 364.705379 
L 375.015341 359.056931 
L 375.807955 351.534144 
L 376.600568 431.773012 
L 377.393182 340.159067 
L 378.185795 353.46261 
L 378.978409 371.175104 
L 379.771023 345.577575 
L 380.563636 418.897789 
L 381.35625 371.220573 
L 382.148864 376.842886 
L 382.941477 388.618721 
L 383.734091 389.482204 
L 384.526705 421.738956 
L 385.319318 369.125408 
L 386.111932 406.898218 
L 386.904545 376.616889 
L 387.697159 380.834278 
L 388.489773 386.973964 
L 389.282386 345.981849 
L 390.075 431.379461 
L 390.867614 340.547982 
L 391.660227 372.923221 
L 392.452841 364.825177 
L 393.245455 358.870431 
L 394.038068 398.397602 
L 394.830682 364.938984 
L 395.623295 429.602632 
L 396.415909 388.025206 
L 397.208523 428.065028 
L 398.001136 368.311861 
L 399.586364 427.711582 
L 400.378977 417.619864 
L 401.171591 438.196973 
L 401.964205 439.186845 
L 402.756818 427.776283 
L 403.549432 431.395035 
L 404.342045 421.901249 
L 405.134659 425.987721 
L 405.927273 432.267615 
L 406.719886 439.447146 
L 407.5125 409.562073 
L 408.305114 405.666392 
L 409.097727 427.006309 
L 409.890341 397.109715 
L 410.682955 431.706884 
L 411.475568 397.228888 
L 412.268182 380.032232 
L 413.060795 416.641802 
L 413.853409 406.80364 
L 414.646023 422.109897 
L 415.438636 416.935322 
L 416.23125 372.443144 
L 417.023864 396.104555 
L 417.816477 409.567074 
L 418.609091 394.265258 
L 419.401705 391.371679 
L 420.194318 369.813828 
L 420.986932 376.596558 
L 421.779545 415.833945 
L 422.572159 370.504426 
L 423.364773 386.469273 
L 424.157386 363.3434 
L 424.95 364.190385 
L 425.742614 389.541171 
L 426.535227 349.60664 
L 427.327841 408.767242 
L 428.120455 375.290052 
L 428.913068 372.912841 
L 429.705682 396.749887 
L 430.498295 375.812729 
L 431.290909 419.514818 
L 432.083523 377.315524 
L 432.876136 369.835237 
L 433.66875 405.125423 
L 434.461364 379.681608 
L 435.253977 405.292698 
L 436.046591 349.136365 
L 437.631818 366.868567 
L 438.424432 361.52387 
L 439.217045 382.749905 
L 440.009659 331.397395 
L 440.802273 389.909984 
L 441.594886 347.050609 
L 442.3875 370.48228 
L 443.180114 362.85468 
L 443.972727 351.132909 
L 444.765341 386.056292 
L 445.557955 342.957036 
L 446.350568 442.82644 
L 447.143182 331.149119 
L 447.935795 363.377353 
L 448.728409 355.328147 
L 449.521023 331.314699 
L 450.313636 417.501727 
L 451.10625 322.243585 
L 451.898864 388.047109 
L 452.691477 343.987062 
L 453.484091 351.217322 
L 454.276705 376.773552 
L 455.069318 340.587034 
L 455.861932 459.594375 
L 456.654545 346.756113 
L 457.447159 381.439767 
L 458.239773 389.33675 
L 459.032386 358.178047 
L 459.825 440.526403 
L 460.617614 353.950367 
L 461.410227 346.653705 
L 462.202841 420.809644 
L 462.995455 338.763533 
L 463.788068 378.628847 
L 464.580682 377.876429 
L 465.373295 362.085377 
L 466.165909 414.153651 
L 466.958523 346.884686 
L 467.751136 390.585345 
L 468.54375 349.850709 
L 469.336364 353.669082 
L 470.128977 412.150558 
L 470.921591 364.395575 
L 471.714205 394.366459 
L 472.506818 365.390361 
L 473.299432 437.8212 
L 474.092045 384.561838 
L 474.884659 373.421451 
L 475.677273 371.961486 
L 476.469886 349.520148 
L 477.2625 408.224514 
L 478.055114 371.176396 
L 478.847727 395.010838 
L 479.640341 359.596388 
L 480.432955 369.321867 
L 481.225568 362.258343 
L 482.018182 383.021886 
L 482.810795 394.538969 
L 483.603409 343.630782 
L 484.396023 374.725398 
L 485.188636 342.476743 
L 485.98125 374.391691 
L 486.773864 358.648916 
L 487.566477 336.364395 
L 488.359091 356.076541 
L 489.151705 319.92883 
L 489.944318 415.378654 
L 490.736932 316.72033 
L 491.529545 361.889887 
L 492.322159 328.41463 
L 493.114773 329.632994 
L 493.907386 384.073888 
L 494.7 326.084931 
L 495.492614 393.369948 
L 496.285227 326.149554 
L 497.077841 379.59547 
L 497.870455 334.810263 
L 498.663068 339.710067 
L 499.455682 356.872975 
L 500.248295 315.167435 
L 501.040909 406.312672 
L 501.833523 308.876768 
L 502.626136 377.27568 
L 503.41875 301.834432 
L 504.211364 340.919328 
L 505.003977 313.604358 
L 505.796591 304.438677 
L 506.589205 349.680322 
L 507.381818 289.09298 
L 508.174432 338.2795 
L 508.967045 313.179981 
L 509.759659 316.120268 
L 510.552273 363.763448 
L 511.344886 300.334197 
L 512.1375 346.947661 
L 512.930114 298.321478 
L 513.722727 320.243462 
L 514.515341 356.727281 
L 515.307955 302.444645 
L 516.100568 356.08782 
L 516.893182 310.480478 
L 517.685795 371.603414 
L 518.478409 325.122108 
L 519.271023 324.451841 
L 520.063636 340.951935 
L 520.85625 314.992576 
L 521.648864 397.147707 
L 522.441477 322.382503 
L 523.234091 328.448926 
L 524.026705 335.766485 
L 524.819318 312.951375 
L 525.611932 387.856994 
L 526.404545 337.249521 
L 527.197159 341.284965 
L 527.989773 314.341819 
L 528.782386 307.304551 
L 529.575 363.361613 
L 530.367614 317.320337 
L 531.160227 358.310919 
L 531.952841 314.990059 
L 532.745455 323.191831 
L 533.538068 350.448823 
L 534.330682 323.449417 
L 535.123295 360.753011 
L 535.915909 307.21124 
L 536.708523 333.227621 
L 537.501136 329.066865 
L 538.29375 320.567826 
L 539.086364 355.125593 
L 539.878977 298.970281 
L 540.671591 334.854409 
L 541.464205 325.148345 
L 542.256818 331.594835 
L 543.049432 336.68496 
L 543.842045 299.474287 
L 544.634659 335.950451 
L 545.427273 305.390758 
L 546.219886 364.776389 
L 547.0125 308.706789 
L 547.805114 303.414637 
L 548.597727 334.116687 
L 549.390341 303.073945 
L 550.182955 409.027804 
L 550.975568 326.810237 
L 551.768182 329.686262 
L 552.560795 340.266384 
L 553.353409 334.849649 
L 554.146023 395.224868 
L 554.938636 321.328524 
L 555.73125 340.121611 
L 556.523864 320.960898 
L 557.316477 355.881202 
L 558.109091 363.483813 
L 558.901705 361.569542 
L 559.694318 343.098509 
L 560.486932 340.759126 
L 561.279545 399.959428 
L 562.072159 347.429231 
L 562.864773 363.558211 
L 563.657386 334.218116 
L 564.45 348.796598 
L 565.242614 383.762091 
L 566.035227 331.627699 
L 566.827841 346.205508 
L 567.620455 317.416311 
L 568.413068 335.720118 
L 569.205682 359.755231 
L 569.998295 332.086032 
L 570.790909 347.937159 
L 571.583523 325.793246 
L 572.376136 366.899182 
L 573.16875 364.067241 
L 573.961364 358.922889 
L 574.753977 344.660312 
L 575.546591 327.86718 
L 576.339205 371.597321 
L 577.131818 339.43747 
L 577.924432 382.889476 
L 578.717045 334.57297 
L 579.509659 341.960573 
L 580.302273 345.059282 
L 581.094886 360.343582 
L 581.8875 357.953358 
L 582.680114 316.724276 
L 583.472727 341.582901 
L 584.265341 350.886169 
L 585.057955 381.334454 
L 585.850568 366.027242 
L 586.643182 325.473873 
L 587.435795 344.226617 
L 588.228409 344.353692 
L 589.021023 393.872248 
L 589.813636 349.779481 
L 590.60625 323.815523 
L 591.398864 321.023189 
L 592.191477 327.350994 
L 592.984091 383.359547 
L 593.776705 344.305115 
L 594.569318 330.964618 
L 595.361932 321.890815 
L 596.154545 354.20777 
L 596.947159 374.193581 
L 597.739773 341.966011 
L 598.532386 338.748282 
L 599.325 331.447853 
L 600.117614 361.067544 
L 600.910227 363.787824 
L 601.702841 356.217912 
L 602.495455 345.868283 
L 603.288068 328.622701 
L 604.080682 375.69627 
L 604.873295 368.192784 
L 605.665909 380.271188 
L 606.458523 349.014291 
L 607.251136 355.135208 
L 608.04375 376.652836 
L 608.836364 395.077953 
L 609.628977 359.782762 
L 610.421591 329.598599 
L 611.214205 347.958348 
L 612.006818 354.394083 
L 612.799432 364.702402 
L 613.592045 353.107501 
L 614.384659 318.171158 
L 615.177273 343.949374 
L 615.969886 330.748786 
L 616.7625 401.527798 
L 617.555114 328.825927 
L 618.347727 325.567745 
L 619.140341 339.510987 
L 619.932955 320.993193 
L 620.725568 393.12663 
L 621.518182 308.837041 
L 622.310795 325.849003 
L 623.103409 339.333644 
L 623.896023 336.90256 
L 624.688636 366.652923 
L 625.48125 316.262486 
L 626.273864 334.814762 
L 627.066477 331.811381 
L 627.859091 382.329134 
L 628.651705 341.217353 
L 629.444318 314.096487 
L 630.236932 322.136145 
L 631.029545 318.099374 
L 631.822159 395.765295 
L 632.614773 324.071067 
L 633.407386 318.214789 
L 634.2 316.616243 
L 634.992614 327.009216 
L 635.785227 390.454128 
L 636.577841 347.821959 
L 637.370455 339.629011 
L 638.163068 327.87451 
L 638.955682 336.254177 
L 639.748295 377.010142 
L 640.540909 366.559159 
L 641.333523 354.122959 
L 642.126136 317.585359 
L 642.91875 339.088138 
L 643.711364 357.333731 
L 644.503977 366.8899 
L 645.296591 338.749866 
L 646.089205 324.541223 
L 647.674432 340.34183 
L 648.467045 367.372064 
L 649.259659 326.871696 
L 650.052273 338.110012 
L 650.844886 323.788169 
L 651.6375 399.510231 
L 652.430114 323.540889 
L 653.222727 330.972619 
L 654.015341 322.762376 
L 654.807955 318.392024 
L 655.600568 403.881605 
L 656.393182 308.293467 
L 657.185795 322.230128 
L 657.978409 315.452659 
L 658.771023 319.295725 
L 659.563636 391.722465 
L 660.35625 310.379056 
L 661.148864 331.861839 
L 661.941477 308.4843 
L 662.734091 320.459601 
L 663.526705 356.68332 
L 664.319318 304.855977 
L 665.111932 329.440779 
L 665.904545 314.464389 
L 666.697159 323.833164 
L 667.489773 367.490426 
L 668.282386 308.532271 
L 669.075 334.378516 
L 669.867614 320.216256 
L 670.660227 337.278926 
L 671.452841 363.37182 
L 672.245455 316.467485 
L 673.038068 356.266859 
L 673.830682 307.846909 
L 674.623295 353.336645 
L 675.415909 323.496724 
L 676.208523 314.619859 
L 677.001136 327.607943 
L 677.79375 292.793649 
L 678.586364 347.352181 
L 679.378977 312.945341 
L 680.171591 336.916495 
L 680.964205 316.704546 
L 681.756818 301.000965 
L 682.549432 352.032147 
L 683.342045 317.919082 
L 684.134659 365.927576 
L 684.927273 317.21415 
L 685.719886 312.343474 
L 686.5125 344.818639 
L 687.305114 308.374246 
L 688.097727 369.58707 
L 688.890341 308.181922 
L 689.682955 306.736603 
L 690.475568 328.421923 
L 691.268182 300.838253 
L 692.060795 406.781982 
L 692.853409 301.141533 
L 693.646023 315.821718 
L 694.438636 318.354767 
L 695.23125 319.598437 
L 696.023864 370.088654 
L 696.816477 303.673787 
L 697.609091 317.869294 
L 698.401705 299.583174 
L 699.194318 331.215644 
L 699.986932 343.488641 
L 700.779545 303.81821 
L 701.572159 311.875245 
L 702.364773 292.826304 
L 703.157386 323.566298 
L 703.95 327.189242 
L 704.742614 294.25918 
L 705.535227 318.362449 
L 706.327841 287.319626 
L 707.120455 326.761044 
L 707.913068 328.927767 
L 708.705682 301.903152 
L 709.498295 314.54832 
L 710.290909 286.47804 
L 711.083523 337.14366 
L 711.876136 305.591226 
L 712.66875 307.192713 
L 713.461364 304.429765 
L 714.253977 279.67303 
L 715.046591 337.728329 
L 715.839205 293.416367 
L 716.631818 319.001921 
L 717.424432 289.119454 
L 718.217045 284.16427 
L 719.009659 335.3749 
L 719.802273 290.654272 
L 720.594886 338.495526 
L 721.3875 288.973287 
L 722.180114 297.523892 
L 722.972727 333.22134 
L 723.765341 304.058222 
L 724.557955 342.141995 
L 725.350568 285.628382 
L 726.143182 326.2581 
L 726.935795 300.663235 
L 727.728409 330.39045 
L 728.521023 323.799848 
L 729.313636 296.419146 
L 730.10625 330.41675 
L 730.898864 299.371063 
L 731.691477 373.062583 
L 732.484091 322.130232 
L 733.276705 316.403954 
L 734.069318 316.118141 
L 734.861932 308.553419 
L 735.654545 393.742379 
L 736.447159 303.627783 
L 737.239773 307.912077 
L 738.032386 308.601892 
L 738.825 301.599261 
L 739.617614 385.14734 
L 740.410227 307.993797 
L 741.202841 322.825239 
L 741.995455 299.95292 
L 742.788068 311.704232 
L 743.580682 343.518667 
L 744.373295 301.678347 
L 745.165909 329.640321 
L 745.958523 279.375947 
L 746.751136 306.894389 
L 747.54375 325.69248 
L 748.336364 300.644551 
L 749.128977 313.387378 
L 749.921591 281.16364 
L 750.714205 312.871387 
L 751.506818 318.46452 
L 752.299432 343.395166 
L 753.092045 311.726563 
L 753.884659 297.766959 
L 754.677273 322.837498 
L 755.469886 317.554928 
L 756.2625 371.137192 
L 757.055114 305.590092 
L 758.640341 320.565916 
L 759.432955 349.65494 
L 760.225568 361.399134 
L 761.018182 316.417714 
L 761.810795 325.342381 
L 762.603409 340.130816 
L 763.396023 424.230204 
L 764.188636 343.948934 
L 764.98125 324.773963 
L 765.773864 327.339296 
L 766.566477 358.114817 
L 767.359091 404.219104 
L 768.151705 342.543335 
L 768.944318 335.963014 
L 769.736932 322.972102 
L 770.529545 360.157928 
L 771.322159 368.546959 
L 772.114773 322.263385 
L 772.907386 329.259371 
L 773.7 316.669119 
L 774.492614 358.903537 
L 775.285227 334.770829 
L 776.077841 319.024898 
L 776.870455 323.962396 
L 777.663068 312.708256 
L 778.455682 392.744282 
L 779.248295 326.263591 
L 780.040909 335.241697 
L 780.833523 318.822105 
L 781.626136 318.51096 
L 782.41875 351.435016 
L 783.211364 308.666945 
L 784.003977 363.627989 
L 784.796591 306.4175 
L 785.589205 320.606971 
L 786.381818 321.900507 
L 787.174432 316.179805 
L 787.967045 348.939618 
L 788.759659 302.877637 
L 789.552273 337.070831 
L 790.344886 326.206723 
L 791.1375 393.736303 
L 791.930114 328.619187 
L 792.722727 333.724993 
L 793.515341 330.432056 
L 794.307955 339.569994 
L 795.100568 413.906146 
L 795.893182 328.283313 
L 796.685795 352.92823 
L 797.478409 326.966444 
L 798.271023 353.406338 
L 799.063636 368.408564 
L 799.063636 368.408564 
" clip-path="url(#p8956e26ef4)" style="fill: none; stroke: #1f77b4; stroke-width: 2; stroke-linecap: square"/>
    <defs>
     <path id="mfe78f01ad0" d="M -7.5 0 
L 7.5 0 
M 0 7.5 
L 0 -7.5 
" style="stroke: #1f77b4"/>
    </defs>
    <g clip-path="url(#p8956e26ef4)">
     <use xlink:href="#mfe78f01ad0" x="190.336364" y="56.394375" style="fill: #1f77b4; stroke: #1f77b4"/>
     <use xlink:href="#mfe78f01ad0" x="250.575" y="294.508944" style="fill: #1f77b4; stroke: #1f77b4"/>
     <use xlink:href="#mfe78f01ad0" x="310.813636" y="390.541196" style="fill: #1f77b4; stroke: #1f77b4"/>
     <use xlink:href="#mfe78f01ad0" x="371.052273" y="345.897179" style="fill: #1f77b4; stroke: #1f77b4"/>
     <use xlink:href="#mfe78f01ad0" x="431.290909" y="419.514818" style="fill: #1f77b4; stroke: #1f77b4"/>
     <use xlink:href="#mfe78f01ad0" x="491.529545" y="361.889887" style="fill: #1f77b4; stroke: #1f77b4"/>
     <use xlink:href="#mfe78f01ad0" x="551.768182" y="329.686262" style="fill: #1f77b4; stroke: #1f77b4"/>
     <use xlink:href="#mfe78f01ad0" x="612.006818" y="354.394083" style="fill: #1f77b4; stroke: #1f77b4"/>
     <use xlink:href="#mfe78f01ad0" x="672.245455" y="316.467485" style="fill: #1f77b4; stroke: #1f77b4"/>
     <use xlink:href="#mfe78f01ad0" x="732.484091" y="322.130232" style="fill: #1f77b4; stroke: #1f77b4"/>
     <use xlink:href="#mfe78f01ad0" x="792.722727" y="333.724993" style="fill: #1f77b4; stroke: #1f77b4"/>
    </g>
   </g>
   <g id="line2d_59">
    <path d="M 190.336364 56.394375 
L 191.128977 56.740386 
L 191.921591 57.790421 
L 192.714205 59.58754 
L 193.506818 62.266153 
L 194.299432 66.037435 
L 195.092045 71.290144 
L 195.884659 78.79393 
L 196.677273 90.213744 
L 197.469886 110.005305 
L 198.2625 161.093123 
L 199.055114 149.309655 
L 199.847727 121.228917 
L 200.640341 118.74668 
L 201.432955 131.3148 
L 202.225568 165.409925 
L 203.018182 178.123906 
L 203.810795 150.205953 
L 204.603409 146.258547 
L 205.396023 158.851929 
L 206.188636 187.315532 
L 206.98125 176.353292 
L 207.773864 162.806474 
L 208.566477 167.333262 
L 209.359091 188.22092 
L 210.151705 190.29904 
L 210.944318 175.858629 
L 211.736932 178.561418 
L 212.529545 196.974061 
L 213.322159 197.782379 
L 214.114773 185.563936 
L 214.907386 189.872754 
L 215.7 208.769165 
L 216.492614 205.169929 
L 217.285227 195.339205 
L 218.077841 204.660994 
L 218.870455 224.217213 
L 219.663068 212.391266 
L 220.455682 209.701026 
L 221.248295 229.291324 
L 222.040909 233.757854 
L 222.833523 219.089273 
L 223.626136 229.205675 
L 224.41875 254.903137 
L 225.211364 235.343394 
L 226.003977 235.275228 
L 226.796591 263.674798 
L 227.589205 249.848226 
L 228.381818 241.935724 
L 229.174432 266.405068 
L 229.967045 259.415158 
L 230.759659 246.711111 
L 231.552273 267.711028 
L 232.344886 263.978711 
L 233.1375 251.562872 
L 233.930114 268.292034 
L 234.722727 269.344021 
L 235.515341 258.191062 
L 236.307955 275.236992 
L 237.100568 277.717581 
L 237.893182 269.704612 
L 238.685795 285.333374 
L 239.478409 289.121988 
L 240.271023 278.668104 
L 241.063636 295.239708 
L 241.85625 297.853177 
L 242.648864 284.733247 
L 243.441477 306.278161 
L 244.234091 313.183008 
L 245.026705 294.530574 
L 245.819318 307.649296 
L 246.611932 317.177311 
L 247.404545 293.762048 
L 248.197159 299.215169 
L 248.989773 316.679968 
L 249.782386 299.560307 
L 250.575 298.693969 
L 251.367614 310.309736 
L 252.160227 295.908178 
L 252.952841 296.558072 
L 253.745455 306.656711 
L 254.538068 296.919881 
L 255.330682 294.818988 
L 256.123295 305.136364 
L 256.915909 300.699745 
L 257.708523 296.931477 
L 258.501136 305.054236 
L 259.29375 307.528961 
L 260.086364 303.5014 
L 261.671591 314.495037 
L 262.464205 312.02715 
L 263.256818 312.14928 
L 264.049432 318.043117 
L 264.842045 320.312291 
L 265.634659 319.810517 
L 266.427273 324.935175 
L 267.219886 323.292271 
L 268.0125 318.766353 
L 268.805114 323.588736 
L 269.597727 329.365049 
L 270.390341 323.083977 
L 271.182955 320.272111 
L 271.975568 329.320883 
L 272.768182 327.228247 
L 273.560795 319.045354 
L 274.353409 322.007483 
L 275.146023 332.935964 
L 275.938636 325.820309 
L 276.73125 323.422482 
L 277.523864 335.285159 
L 278.316477 337.132835 
L 279.109091 327.821518 
L 279.901705 331.153634 
L 280.694318 344.330967 
L 281.486932 338.599355 
L 282.279545 329.287362 
L 283.864773 351.798854 
L 284.657386 338.015815 
L 285.45 340.96916 
L 286.242614 354.002042 
L 287.035227 355.998077 
L 287.827841 344.370261 
L 288.620455 341.863116 
L 289.413068 352.10317 
L 290.205682 347.294423 
L 290.998295 329.024785 
L 291.790909 328.86279 
L 292.583523 344.679023 
L 293.376136 344.281686 
L 294.16875 323.391064 
L 294.961364 320.791874 
L 295.753977 335.955958 
L 296.546591 342.603083 
L 297.339205 325.930387 
L 298.131818 323.24066 
L 298.924432 334.048406 
L 299.717045 341.372165 
L 300.509659 330.221363 
L 301.302273 321.552418 
L 302.094886 331.799335 
L 302.8875 347.388702 
L 303.680114 337.866325 
L 304.472727 331.045604 
L 305.265341 336.98018 
L 306.057955 346.793575 
L 306.850568 336.392097 
L 307.643182 331.841069 
L 308.435795 343.547661 
L 309.228409 360.90153 
L 310.021023 357.250001 
L 310.813636 347.981102 
L 311.60625 350.780201 
L 312.398864 360.764678 
L 313.191477 353.767927 
L 313.984091 345.154878 
L 314.776705 351.48372 
L 315.569318 374.373241 
L 316.361932 360.163988 
L 317.154545 333.353379 
L 317.947159 335.039811 
L 318.739773 359.27491 
L 319.532386 369.00001 
L 320.325 353.405429 
L 321.117614 350.238179 
L 321.910227 368.802655 
L 322.702841 379.787675 
L 323.495455 355.323736 
L 324.288068 341.644474 
L 325.080682 349.693423 
L 325.873295 377.757265 
L 326.665909 374.69093 
L 327.458523 352.934295 
L 328.251136 346.125878 
L 329.04375 362.709563 
L 329.836364 387.592585 
L 330.628977 354.756805 
L 331.421591 334.241823 
L 332.214205 341.600783 
L 333.006818 375.677774 
L 333.799432 389.839495 
L 334.592045 343.145412 
L 335.384659 333.333656 
L 336.177273 351.315648 
L 336.969886 396.780748 
L 338.555114 339.924443 
L 339.347727 345.192161 
L 340.140341 380.508258 
L 340.932955 380.054319 
L 341.725568 336.730606 
L 342.518182 324.942937 
L 343.310795 337.482311 
L 344.103409 379.64585 
L 344.896023 362.516661 
L 345.688636 327.987118 
L 346.48125 316.893662 
L 347.273864 329.800611 
L 348.066477 370.161565 
L 348.859091 363.790028 
L 349.651705 320.284664 
L 350.444318 307.608954 
L 351.236932 317.572859 
L 352.029545 353.763665 
L 352.822159 375.457149 
L 353.614773 327.67224 
L 354.407386 308.388015 
L 355.2 311.362114 
L 355.992614 336.161949 
L 356.785227 381.528463 
L 357.577841 356.996255 
L 358.370455 328.37789 
L 359.163068 323.411694 
L 359.955682 341.956655 
L 360.748295 385.506086 
L 361.540909 378.780725 
L 362.333523 344.026362 
L 363.126136 332.09316 
L 363.91875 345.76615 
L 364.711364 391.3274 
L 365.503977 384.455292 
L 366.296591 341.516953 
L 367.089205 330.619924 
L 367.881818 344.465468 
L 368.674432 390.861834 
L 369.467045 398.02627 
L 370.259659 352.108379 
L 371.052273 337.255545 
L 371.844886 344.933755 
L 373.430114 421.176847 
L 374.222727 361.530984 
L 375.015341 345.688637 
L 375.807955 352.062782 
L 376.600568 379.886276 
L 377.393182 423.723432 
L 378.185795 371.101929 
L 378.978409 344.335832 
L 379.771023 342.723426 
L 380.563636 359.926696 
L 381.35625 401.713636 
L 382.148864 397.163874 
L 382.941477 364.496604 
L 383.734091 355.184095 
L 384.526705 360.70451 
L 386.111932 409.213485 
L 386.904545 378.90961 
L 387.697159 360.121286 
L 388.489773 362.951368 
L 389.282386 380.522339 
L 390.075 414.852045 
L 390.867614 401.117601 
L 391.660227 371.331709 
L 392.452841 364.13773 
L 393.245455 370.977363 
L 394.038068 395.367799 
L 394.830682 427.491141 
L 395.623295 389.377879 
L 396.415909 364.860607 
L 397.208523 361.128705 
L 398.001136 372.726687 
L 398.79375 393.130419 
L 399.586364 377.828879 
L 400.378977 353.684548 
L 401.171591 343.431003 
L 401.964205 349.374213 
L 402.756818 377.602234 
L 403.549432 416.218126 
L 405.134659 353.652298 
L 405.927273 348.760101 
L 406.719886 363.699177 
L 407.5125 395.644375 
L 408.305114 394.045627 
L 409.097727 364.135015 
L 409.890341 348.155987 
L 410.682955 348.554425 
L 411.475568 371.853806 
L 412.268182 407.262006 
L 413.060795 375.182278 
L 413.853409 348.561194 
L 414.646023 340.29125 
L 415.438636 349.027916 
L 417.023864 406.187643 
L 417.816477 376.87068 
L 418.609091 357.542348 
L 419.401705 358.258113 
L 420.194318 382.323643 
L 420.986932 414.273772 
L 422.572159 355.260931 
L 423.364773 346.417417 
L 424.157386 355.473823 
L 425.742614 420.837946 
L 427.327841 360.599001 
L 428.120455 350.023493 
L 428.913068 356.457987 
L 429.705682 388.542648 
L 430.498295 431.935654 
L 431.290909 382.103653 
L 432.083523 353.16331 
L 432.876136 343.528569 
L 433.66875 351.187956 
L 434.461364 381.845913 
L 435.253977 423.685288 
L 436.046591 380.076959 
L 436.839205 349.858944 
L 437.631818 342.563615 
L 438.424432 354.476257 
L 440.009659 419.166115 
L 440.802273 382.174119 
L 441.594886 356.926644 
L 442.3875 351.506533 
L 443.180114 358.694163 
L 444.765341 398.470312 
L 445.557955 388.600399 
L 446.350568 366.887894 
L 447.143182 356.310587 
L 447.935795 362.441595 
L 448.728409 384.14292 
L 449.521023 419.273667 
L 451.10625 364.931378 
L 451.898864 352.909224 
L 452.691477 355.081385 
L 453.484091 371.355501 
L 454.276705 407.010261 
L 455.069318 425.513068 
L 455.861932 384.202135 
L 456.654545 359.789543 
L 457.447159 350.548439 
L 458.239773 354.864494 
L 459.032386 375.302293 
L 459.825 403.946064 
L 460.617614 393.919184 
L 461.410227 366.336738 
L 462.202841 352.216412 
L 462.995455 350.716739 
L 463.788068 360.211036 
L 464.580682 387.503991 
L 465.373295 423.530972 
L 466.958523 367.95043 
L 467.751136 359.584046 
L 468.54375 367.090003 
L 470.128977 411.685807 
L 470.921591 401.404483 
L 471.714205 376.95232 
L 472.506818 364.75645 
L 473.299432 366.255954 
L 474.092045 383.519092 
L 474.884659 406.658133 
L 475.677273 400.936097 
L 476.469886 373.868549 
L 477.2625 354.735203 
L 478.055114 347.411608 
L 478.847727 349.563839 
L 479.640341 364.599104 
L 480.432955 398.895437 
L 481.225568 405.900958 
L 482.018182 370.225356 
L 482.810795 348.965086 
L 483.603409 344.119801 
L 484.396023 353.804507 
L 485.98125 406.631794 
L 487.566477 351.570662 
L 488.359091 341.553825 
L 489.151705 347.118992 
L 489.944318 368.944154 
L 490.736932 408.803431 
L 491.529545 415.189873 
L 492.322159 367.917902 
L 493.114773 343.317308 
L 493.907386 336.024506 
L 494.7 343.397223 
L 495.492614 366.612601 
L 496.285227 406.430553 
L 497.077841 404.252936 
L 497.870455 371.304498 
L 498.663068 355.552291 
L 499.455682 355.515592 
L 500.248295 370.91848 
L 501.833523 434.228055 
L 502.626136 393.466248 
L 503.41875 365.816158 
L 504.211364 356.382574 
L 505.003977 359.884726 
L 505.796591 378.595655 
L 506.589205 409.107488 
L 507.381818 424.113244 
L 508.174432 397.884624 
L 508.967045 378.060393 
L 509.759659 370.048167 
L 510.552273 373.94128 
L 511.344886 386.065275 
L 512.1375 408.1713 
L 512.930114 417.078757 
L 514.515341 386.913462 
L 515.307955 383.644042 
L 516.100568 392.648571 
L 517.685795 442.938419 
L 518.478409 426.463327 
L 519.271023 402.112613 
L 520.063636 391.958564 
L 520.85625 394.45745 
L 521.648864 406.034576 
L 522.441477 422.937847 
L 523.234091 421.884518 
L 524.026705 398.945762 
L 524.819318 383.012533 
L 525.611932 379.116818 
L 526.404545 385.072217 
L 527.197159 403.929907 
L 527.989773 432.161422 
L 528.782386 436.651311 
L 529.575 409.079898 
L 530.367614 388.920103 
L 531.160227 377.912791 
L 531.952841 379.290451 
L 532.745455 390.936492 
L 534.330682 439.296063 
L 535.915909 391.178488 
L 536.708523 378.828669 
L 537.501136 377.186604 
L 538.29375 386.226919 
L 539.086364 404.538758 
L 539.878977 426.333592 
L 540.671591 413.962572 
L 541.464205 384.588031 
L 542.256818 367.93837 
L 543.049432 364.373306 
L 543.842045 372.250584 
L 544.634659 394.244527 
L 545.427273 427.96073 
L 546.219886 421.755357 
L 547.0125 389.641244 
L 547.805114 374.205554 
L 548.597727 372.50558 
L 549.390341 382.016273 
L 550.182955 402.390831 
L 550.975568 429.771059 
L 551.768182 426.686749 
L 552.560795 408.378934 
L 553.353409 396.041913 
L 554.146023 389.456378 
L 554.938636 393.054576 
L 555.73125 402.493816 
L 556.523864 420.678162 
L 557.316477 434.877914 
L 558.109091 426.750209 
L 559.694318 393.226841 
L 560.486932 388.874847 
L 561.279545 399.701363 
L 562.072159 419.375939 
L 562.864773 419.59 
L 563.657386 401.409235 
L 564.45 386.16862 
L 565.242614 379.155198 
L 566.035227 379.112671 
L 566.827841 391.649633 
L 568.413068 440.824052 
L 569.205682 420.375064 
L 569.998295 393.70364 
L 570.790909 379.184631 
L 571.583523 373.063147 
L 572.376136 378.923234 
L 573.16875 397.048319 
L 573.961364 422.788752 
L 574.753977 424.589367 
L 575.546591 403.934897 
L 576.339205 388.876754 
L 577.131818 387.382622 
L 577.924432 396.978037 
L 578.717045 418.311071 
L 579.509659 446.297139 
L 580.302273 444.823921 
L 581.094886 411.369832 
L 581.8875 385.952042 
L 582.680114 375.096209 
L 583.472727 378.217533 
L 584.265341 392.137793 
L 585.057955 412.489552 
L 585.850568 415.281472 
L 586.643182 393.235098 
L 587.435795 376.700578 
L 588.228409 369.506883 
L 589.021023 371.351634 
L 589.813636 383.700791 
L 590.60625 411.776566 
L 591.398864 454.651339 
L 592.191477 417.979365 
L 592.984091 387.380066 
L 593.776705 371.601723 
L 594.569318 363.527441 
L 595.361932 365.167117 
L 596.154545 377.032512 
L 596.947159 400.132949 
L 597.739773 409.030608 
L 599.325 372.321254 
L 600.117614 363.505362 
L 600.910227 365.839018 
L 601.702841 381.733104 
L 602.495455 422.115313 
L 603.288068 453.746061 
L 604.080682 403.291994 
L 604.873295 372.924713 
L 605.665909 357.797459 
L 606.458523 352.524106 
L 607.251136 354.996925 
L 608.04375 364.452054 
L 608.836364 382.019745 
L 609.628977 395.220269 
L 610.421591 387.262568 
L 611.214205 370.179771 
L 612.006818 357.287425 
L 612.799432 354.113233 
L 613.592045 358.556283 
L 614.384659 375.796929 
L 615.969886 449.524568 
L 616.7625 402.310423 
L 617.555114 370.626816 
L 618.347727 357.092664 
L 619.140341 352.922251 
L 619.932955 358.55995 
L 620.725568 373.404482 
L 622.310795 426.916265 
L 623.103409 413.250296 
L 623.896023 392.984257 
L 624.688636 382.156404 
L 625.48125 385.308292 
L 626.273864 399.907705 
L 627.066477 424.264935 
L 627.859091 428.721269 
L 629.444318 383.657434 
L 630.236932 371.096129 
L 631.029545 369.578262 
L 631.822159 377.75125 
L 632.614773 395.289569 
L 633.407386 418.052832 
L 634.2 427.252908 
L 634.992614 408.418207 
L 635.785227 385.857166 
L 636.577841 374.821567 
L 637.370455 371.138262 
L 638.163068 377.435412 
L 638.955682 396.135194 
L 639.748295 432.445251 
L 640.540909 431.215851 
L 641.333523 392.094472 
L 642.126136 369.596935 
L 642.91875 356.747535 
L 643.711364 352.832977 
L 644.503977 359.374025 
L 645.296591 377.087523 
L 646.089205 410.148092 
L 646.881818 422.754475 
L 647.674432 383.328845 
L 648.467045 359.193299 
L 649.259659 347.94241 
L 650.052273 346.643074 
L 650.844886 354.383012 
L 651.6375 374.951454 
L 652.430114 413.553079 
L 653.222727 430.695054 
L 654.015341 388.790405 
L 654.807955 359.54431 
L 655.600568 342.854186 
L 656.393182 336.409333 
L 657.185795 337.244867 
L 657.978409 345.465367 
L 658.771023 363.619223 
L 659.563636 394.019377 
L 660.35625 413.961509 
L 661.941477 361.501799 
L 662.734091 348.882302 
L 663.526705 345.638842 
L 664.319318 351.127201 
L 665.111932 366.526374 
L 665.904545 386.092687 
L 666.697159 395.096668 
L 667.489773 378.76968 
L 668.282386 358.973855 
L 669.075 346.317535 
L 669.867614 341.46992 
L 670.660227 343.572929 
L 671.452841 354.018818 
L 672.245455 374.800285 
L 673.038068 411.618841 
L 673.830682 459.053297 
L 674.623295 416.723847 
L 675.415909 380.609474 
L 676.208523 359.760012 
L 677.001136 351.120259 
L 677.79375 350.45592 
L 678.586364 356.330372 
L 680.171591 379.064445 
L 680.964205 378.591368 
L 681.756818 369.841868 
L 682.549432 362.374722 
L 683.342045 359.778365 
L 684.134659 362.618187 
L 684.927273 373.094033 
L 685.719886 393.625893 
L 686.5125 428.607872 
L 687.305114 456.781643 
L 688.890341 389.171328 
L 689.682955 372.990557 
L 690.475568 364.434331 
L 691.268182 362.697945 
L 692.060795 363.679603 
L 692.853409 367.783705 
L 693.646023 373.161773 
L 694.438636 376.742649 
L 696.023864 377.623749 
L 696.816477 380.014687 
L 697.609091 387.542052 
L 698.401705 397.25425 
L 699.194318 410.082627 
L 699.986932 427.248207 
L 700.779545 431.862959 
L 702.364773 392.255631 
L 703.157386 380.044485 
L 703.95 372.661128 
L 704.742614 369.202313 
L 705.535227 369.6247 
L 706.327841 373.864367 
L 707.120455 380.197257 
L 708.705682 395.891748 
L 709.498295 401.161669 
L 710.290909 404.444446 
L 711.083523 408.771514 
L 711.876136 412.337085 
L 712.66875 415.053574 
L 713.461364 416.163381 
L 714.253977 414.342542 
L 715.046591 408.158651 
L 715.839205 399.724924 
L 716.631818 392.834175 
L 717.424432 387.812291 
L 718.217045 384.929406 
L 719.009659 384.968201 
L 719.802273 388.937077 
L 720.594886 398.293932 
L 721.3875 413.333287 
L 722.972727 454.43814 
L 723.765341 453.054046 
L 724.557955 432.17248 
L 725.350568 414.762439 
L 726.143182 402.968101 
L 726.935795 394.165495 
L 728.521023 380.400392 
L 729.313636 375.024326 
L 730.10625 371.174357 
L 730.898864 368.493738 
L 731.691477 368.150107 
L 732.484091 372.895257 
L 733.276705 383.699897 
L 734.069318 399.53499 
L 735.654545 445.955982 
L 736.447159 446.511961 
L 738.032386 409.919734 
L 738.825 397.165862 
L 739.617614 386.850258 
L 740.410227 379.078838 
L 741.202841 372.55891 
L 741.995455 367.094183 
L 742.788068 363.979479 
L 743.580682 363.547399 
L 744.373295 365.951035 
L 745.165909 372.238404 
L 745.958523 382.760543 
L 746.751136 397.415639 
L 747.54375 417.99908 
L 748.336364 444.427201 
L 749.128977 448.491374 
L 750.714205 401.054779 
L 751.506818 382.736598 
L 752.299432 369.798275 
L 753.092045 360.544582 
L 753.884659 354.436878 
L 754.677273 351.002188 
L 755.469886 350.17996 
L 756.2625 351.538823 
L 757.055114 355.432488 
L 757.847727 361.626551 
L 758.640341 369.705918 
L 759.432955 381.226012 
L 760.225568 397.613143 
L 761.810795 435.577719 
L 762.603409 437.812247 
L 763.396023 420.388587 
L 764.188636 400.240915 
L 764.98125 384.037085 
L 765.773864 372.213762 
L 766.566477 363.593567 
L 767.359091 357.487738 
L 768.151705 353.426611 
L 768.944318 351.183049 
L 769.736932 351.476934 
L 770.529545 354.240201 
L 771.322159 359.78952 
L 772.114773 368.508314 
L 772.907386 382.37761 
L 773.7 404.092333 
L 774.492614 433.56398 
L 775.285227 442.414589 
L 776.077841 415.883399 
L 776.870455 393.309749 
L 777.663068 376.456234 
L 778.455682 364.545881 
L 779.248295 356.416999 
L 780.040909 350.699626 
L 780.833523 347.089345 
L 781.626136 345.690852 
L 782.41875 345.315624 
L 783.211364 346.124364 
L 784.003977 347.296769 
L 784.796591 348.961264 
L 785.589205 352.835306 
L 786.381818 359.086598 
L 787.174432 369.374731 
L 787.967045 387.311438 
L 789.552273 440.15265 
L 790.344886 416.915188 
L 791.1375 385.025494 
L 791.930114 364.90331 
L 792.722727 352.989536 
L 793.515341 346.397575 
L 794.307955 343.623512 
L 795.100568 343.538111 
L 795.893182 345.44032 
L 796.685795 348.855594 
L 797.478409 353.71159 
L 798.271023 359.746412 
L 799.063636 366.876723 
L 799.063636 366.876723 
" clip-path="url(#p8956e26ef4)" style="fill: none; stroke: #ff7f0e; stroke-width: 2; stroke-linecap: square"/>
    <defs>
     <path id="mb264e9c5f8" d="M -0 10.606602 
L 6.363961 0 
L 0 -10.606602 
L -6.363961 -0 
z
" style="stroke: #ff7f0e; stroke-linejoin: miter"/>
    </defs>
    <g clip-path="url(#p8956e26ef4)">
     <use xlink:href="#mb264e9c5f8" x="769.736932" y="351.476934" style="fill: #ff7f0e; stroke: #ff7f0e; stroke-linejoin: miter"/>
     <use xlink:href="#mb264e9c5f8" x="220.455682" y="209.701026" style="fill: #ff7f0e; stroke: #ff7f0e; stroke-linejoin: miter"/>
     <use xlink:href="#mb264e9c5f8" x="280.694318" y="344.330967" style="fill: #ff7f0e; stroke: #ff7f0e; stroke-linejoin: miter"/>
     <use xlink:href="#mb264e9c5f8" x="340.932955" y="380.054319" style="fill: #ff7f0e; stroke: #ff7f0e; stroke-linejoin: miter"/>
     <use xlink:href="#mb264e9c5f8" x="401.171591" y="343.431003" style="fill: #ff7f0e; stroke: #ff7f0e; stroke-linejoin: miter"/>
     <use xlink:href="#mb264e9c5f8" x="461.410227" y="366.336738" style="fill: #ff7f0e; stroke: #ff7f0e; stroke-linejoin: miter"/>
     <use xlink:href="#mb264e9c5f8" x="521.648864" y="406.034576" style="fill: #ff7f0e; stroke: #ff7f0e; stroke-linejoin: miter"/>
     <use xlink:href="#mb264e9c5f8" x="581.8875" y="385.952042" style="fill: #ff7f0e; stroke: #ff7f0e; stroke-linejoin: miter"/>
     <use xlink:href="#mb264e9c5f8" x="642.126136" y="369.596935" style="fill: #ff7f0e; stroke: #ff7f0e; stroke-linejoin: miter"/>
     <use xlink:href="#mb264e9c5f8" x="702.364773" y="392.255631" style="fill: #ff7f0e; stroke: #ff7f0e; stroke-linejoin: miter"/>
     <use xlink:href="#mb264e9c5f8" x="762.603409" y="437.812247" style="fill: #ff7f0e; stroke: #ff7f0e; stroke-linejoin: miter"/>
    </g>
   </g>
   <g id="patch_3">
    <path d="M 159.9 479.754375 
L 159.9 36.234375 
" style="fill: none; stroke: #000000; stroke-width: 0.8; stroke-linejoin: miter; stroke-linecap: square"/>
   </g>
   <g id="patch_4">
    <path d="M 829.5 479.754375 
L 829.5 36.234375 
" style="fill: none; stroke: #000000; stroke-width: 0.8; stroke-linejoin: miter; stroke-linecap: square"/>
   </g>
   <g id="patch_5">
    <path d="M 159.9 479.754375 
L 829.5 479.754375 
" style="fill: none; stroke: #000000; stroke-width: 0.8; stroke-linejoin: miter; stroke-linecap: square"/>
   </g>
   <g id="patch_6">
    <path d="M 159.9 36.234375 
L 829.5 36.234375 
" style="fill: none; stroke: #000000; stroke-width: 0.8; stroke-linejoin: miter; stroke-linecap: square"/>
   </g>
   <g id="text_15">
    <!-- diabetes -->
    <g transform="translate(430.141406 29.995312) scale(0.3 -0.3)">
     <defs>
      <path id="DejaVuSans-69" d="M 603 3500 
L 1178 3500 
L 1178 0 
L 603 0 
L 603 3500 
z
M 603 4863 
L 1178 4863 
L 1178 4134 
L 603 4134 
L 603 4863 
z
" transform="scale(0.015625)"/>
     </defs>
     <use xlink:href="#DejaVuSans-64"/>
     <use xlink:href="#DejaVuSans-69" x="63.476562"/>
     <use xlink:href="#DejaVuSans-61" x="91.259766"/>
     <use xlink:href="#DejaVuSans-62" x="152.539062"/>
     <use xlink:href="#DejaVuSans-65" x="216.015625"/>
     <use xlink:href="#DejaVuSans-74" x="277.539062"/>
     <use xlink:href="#DejaVuSans-65" x="316.748047"/>
     <use xlink:href="#DejaVuSans-73" x="378.271484"/>
    </g>
   </g>
   <g id="legend_1">
    <g id="patch_7">
     <path d="M 563.765625 129.625 
L 812 129.625 
Q 817 129.625 817 124.625 
L 817 53.734375 
Q 817 48.734375 812 48.734375 
L 563.765625 48.734375 
Q 558.765625 48.734375 558.765625 53.734375 
L 558.765625 124.625 
Q 558.765625 129.625 563.765625 129.625 
z
" style="fill: #ffffff; opacity: 0.8; stroke: #cccccc; stroke-linejoin: miter"/>
    </g>
    <g id="line2d_60">
     <path d="M 568.765625 68.980469 
L 593.765625 68.980469 
L 618.765625 68.980469 
" style="fill: none; stroke: #1f77b4; stroke-width: 2; stroke-linecap: square"/>
     <g>
      <use xlink:href="#mfe78f01ad0" x="593.765625" y="68.980469" style="fill: #1f77b4; stroke: #1f77b4"/>
     </g>
    </g>
    <g id="text_16">
     <!-- SSTM -->
     <g transform="translate(638.765625 77.730469) scale(0.25 -0.25)">
      <defs>
       <path id="DejaVuSans-53" d="M 3425 4513 
L 3425 3897 
Q 3066 4069 2747 4153 
Q 2428 4238 2131 4238 
Q 1616 4238 1336 4038 
Q 1056 3838 1056 3469 
Q 1056 3159 1242 3001 
Q 1428 2844 1947 2747 
L 2328 2669 
Q 3034 2534 3370 2195 
Q 3706 1856 3706 1288 
Q 3706 609 3251 259 
Q 2797 -91 1919 -91 
Q 1588 -91 1214 -16 
Q 841 59 441 206 
L 441 856 
Q 825 641 1194 531 
Q 1563 422 1919 422 
Q 2459 422 2753 634 
Q 3047 847 3047 1241 
Q 3047 1584 2836 1778 
Q 2625 1972 2144 2069 
L 1759 2144 
Q 1053 2284 737 2584 
Q 422 2884 422 3419 
Q 422 4038 858 4394 
Q 1294 4750 2059 4750 
Q 2388 4750 2728 4690 
Q 3069 4631 3425 4513 
z
" transform="scale(0.015625)"/>
       <path id="DejaVuSans-54" d="M -19 4666 
L 3928 4666 
L 3928 4134 
L 2272 4134 
L 2272 0 
L 1638 0 
L 1638 4134 
L -19 4134 
L -19 4666 
z
" transform="scale(0.015625)"/>
       <path id="DejaVuSans-4d" d="M 628 4666 
L 1569 4666 
L 2759 1491 
L 3956 4666 
L 4897 4666 
L 4897 0 
L 4281 0 
L 4281 4097 
L 3078 897 
L 2444 897 
L 1241 4097 
L 1241 0 
L 628 0 
L 628 4666 
z
" transform="scale(0.015625)"/>
      </defs>
      <use xlink:href="#DejaVuSans-53"/>
      <use xlink:href="#DejaVuSans-53" x="63.476562"/>
      <use xlink:href="#DejaVuSans-54" x="126.953125"/>
      <use xlink:href="#DejaVuSans-4d" x="188.037109"/>
     </g>
    </g>
    <g id="line2d_61">
     <path d="M 568.765625 105.675781 
L 593.765625 105.675781 
L 618.765625 105.675781 
" style="fill: none; stroke: #ff7f0e; stroke-width: 2; stroke-linecap: square"/>
     <g>
      <use xlink:href="#mb264e9c5f8" x="593.765625" y="105.675781" style="fill: #ff7f0e; stroke: #ff7f0e; stroke-linejoin: miter"/>
     </g>
    </g>
    <g id="text_17">
     <!-- clipped-SSTM -->
     <g transform="translate(638.765625 114.425781) scale(0.25 -0.25)">
      <defs>
       <path id="DejaVuSans-63" d="M 3122 3366 
L 3122 2828 
Q 2878 2963 2633 3030 
Q 2388 3097 2138 3097 
Q 1578 3097 1268 2742 
Q 959 2388 959 1747 
Q 959 1106 1268 751 
Q 1578 397 2138 397 
Q 2388 397 2633 464 
Q 2878 531 3122 666 
L 3122 134 
Q 2881 22 2623 -34 
Q 2366 -91 2075 -91 
Q 1284 -91 818 406 
Q 353 903 353 1747 
Q 353 2603 823 3093 
Q 1294 3584 2113 3584 
Q 2378 3584 2631 3529 
Q 2884 3475 3122 3366 
z
" transform="scale(0.015625)"/>
       <path id="DejaVuSans-6c" d="M 603 4863 
L 1178 4863 
L 1178 0 
L 603 0 
L 603 4863 
z
" transform="scale(0.015625)"/>
       <path id="DejaVuSans-2d" d="M 313 2009 
L 1997 2009 
L 1997 1497 
L 313 1497 
L 313 2009 
z
" transform="scale(0.015625)"/>
      </defs>
      <use xlink:href="#DejaVuSans-63"/>
      <use xlink:href="#DejaVuSans-6c" x="54.980469"/>
      <use xlink:href="#DejaVuSans-69" x="82.763672"/>
      <use xlink:href="#DejaVuSans-70" x="110.546875"/>
      <use xlink:href="#DejaVuSans-70" x="174.023438"/>
      <use xlink:href="#DejaVuSans-65" x="237.5"/>
      <use xlink:href="#DejaVuSans-64" x="299.023438"/>
      <use xlink:href="#DejaVuSans-2d" x="362.5"/>
      <use xlink:href="#DejaVuSans-53" x="398.583984"/>
      <use xlink:href="#DejaVuSans-53" x="462.060547"/>
      <use xlink:href="#DejaVuSans-54" x="525.537109"/>
      <use xlink:href="#DejaVuSans-4d" x="586.621094"/>
     </g>
    </g>
   </g>
  </g>
 </g>
 <defs>
  <clipPath id="p8956e26ef4">
   <rect x="159.9" y="36.234375" width="669.6" height="443.52"/>
  </clipPath>
 </defs>
</svg>
